SplineFontDB: 3.0
FontName: Nobile-extra-light
FullName: Nobile extra-light
FamilyName: Nobile
Weight: Extra-light
Copyright: 
Version: 
ItalicAngle: 0
UnderlinePosition: -163
UnderlineWidth: 19
Ascent: 1638
Descent: 410
UFOAscent: 1638
UFODescent: -410
LayerCount: 2
Layer: 0 0 "Back"  1
Layer: 1 0 "Fore"  0
OS2Version: 0
OS2_WeightWidthSlopeOnly: 0
OS2_UseTypoMetrics: 0
CreationTime: 1384804554
ModificationTime: 1384804611
PfmFamily: 0
TTFWeight: 239
TTFWidth: 5
LineGap: 0
VLineGap: 0
Panose: 2 0 0 3 0 0 0 0 0 0
OS2TypoAscent: 760
OS2TypoAOffset: 0
OS2TypoDescent: -190
OS2TypoDOffset: 0
OS2TypoLinegap: 0
OS2WinAscent: 2390
OS2WinAOffset: 0
OS2WinDescent: 664
OS2WinDOffset: 0
HheadAscent: -1259
HheadAOffset: 0
HheadDescent: 369
HheadDOffset: 0
OS2SubXSize: 1331
OS2SubYSize: 1433
OS2SubXOff: 0
OS2SubYOff: 286
OS2SupXSize: 1331
OS2SupYSize: 1433
OS2SupXOff: 0
OS2SupYOff: 983
OS2StrikeYSize: 102
OS2StrikeYPos: 530
OS2Vendor: 'newt'
Lookup: 258 0 0 "'kern' Horizontal Kerning in Latin lookup 0"  {"'kern' Horizontal Kerning in Latin lookup 0 subtable"  } ['kern' ('latn' <'dflt' > ) ]
MarkAttachClasses: 1
DEI: 91125
PickledData: "(dp1
S'com.typemytype.robofont.foreground.layerStrokeColor'
p2
(F0.5
F0
F0.5
F0.69999999999999996
tp3
sS'com.typemytype.robofont.guides'
p4
((dp5
S'angle'
p6
I0
sS'name'
p7
NsS'magnetic'
p8
I5
sS'isGlobal'
p9
I1
sS'y'
I1599
sS'x'
I608
s(dp10
g6
I0
sg7
Nsg8
I5
sg9
I1
sS'y'
I-12
sS'x'
I579
s(dp11
g6
I0
sg7
Nsg8
I5
sg9
I1
sS'y'
I1447
sS'x'
I795
s(dp12
g6
I0
sg7
Nsg8
I5
sg9
I1
sS'y'
I132
sS'x'
I780
s(dp13
g6
I0
sg7
Nsg8
I5
sg9
I1
sS'y'
I1102
sS'x'
I626
s(dp14
g6
I0
sg7
Nsg8
I5
sg9
I1
sS'y'
I1184
sS'x'
I716
s(dp15
g6
I0
sg7
Nsg8
I5
sg9
I1
sS'y'
I69
sS'x'
I626
stp16
sS'com.superpolator.editor.generateInfo'
p17
S'Generated with LTR Superpolator version 110221_1144_developer_'
p18
sS'com.typemytype.robofont.b.layerStrokeColor'
p19
(F0.5
F1
F0
F0.69999999999999996
tp20
sS'com.typemytype.robofont.layerOrder'
p21
(S'b'
tp22

StartChar: .notdef
Encoding: 65536 -1 0
Width: 785
VWidth: 0
Flags: W
PickledData: "(dp1
S'org.robofab.postScriptHintData'
p2
(dp3
s."
HStem: 0 68<210 618> 1297 68<210 618>
VStem: 142 68<68 1297> 618 68<68 1297>
LayerCount: 2
Fore
SplineSet
142 0 m 1
 142 1365 l 1
 686 1365 l 1
 686 0 l 1
 142 0 l 1
210 68 m 1
 618 68 l 1
 618 1297 l 1
 210 1297 l 1
 210 68 l 1
EndSplineSet
Validated: 1
EndChar

StartChar: A
Encoding: 65 65 1
Width: 1357
VWidth: 0
Flags: W
PickledData: "(dp1
S'org.robofab.postScriptHintData'
p2
(dp3
sS'com.typemytype.robofont.layerData'
p4
(dp5
S'b'
(dp6
S'name'
p7
S'A'
sS'lib'
p8
(dp9
sS'unicodes'
p10
(tsS'width'
p11
I1357
sS'contours'
p12
(tsS'components'
p13
(tsS'anchors'
p14
(tsss."
HStem: 0 21G<43 152.484 1204.57 1314> 401 61<301 1056> 1560 20G<550.494 668 682 806.506> 1580 21G<668 682>
LayerCount: 2
Fore
SplineSet
43 0 m 1xe0
 557 1580 l 1
 668 1580 l 1
 301 462 l 1
 1056 462 l 1
 682 1580 l 1
 800 1580 l 1
 1314 0 l 1
 1211 0 l 1
 1082 401 l 1
 276 401 l 1
 146 0 l 1
 43 0 l 1xe0
668 1580 m 1
 675 1601 l 1xd0
 682 1580 l 1
 668 1580 l 1
EndSplineSet
Validated: 5
EndChar

StartChar: AE
Encoding: 198 198 2
Width: 1745
VWidth: 0
Flags: W
PickledData: "(dp1
S'org.robofab.postScriptHintData'
p2
(dp3
s."
HStem: 0 100<1044 1715> 382 97<386 981> 776 89<1044 1660> 1469 111<1041 1678>
VStem: 981 63<100 382 479 776 865 1469>
LayerCount: 2
Fore
SplineSet
386 479 m 1
 981 479 l 1
 981 1521 l 1
 386 479 l 1
-39 0 m 1
 897 1580 l 1
 1678 1580 l 1
 1678 1469 l 1
 1041 1469 l 1
 1041 865 l 1
 1660 865 l 1
 1660 776 l 1
 1044 776 l 1
 1044 100 l 1
 1715 100 l 1
 1715 0 l 1
 984 0 l 1
 984 382 l 1
 319 382 l 1
 90 0 l 1
 -39 0 l 1
EndSplineSet
Validated: 1
EndChar

StartChar: B
Encoding: 66 66 12
Width: 1287
VWidth: 0
Flags: W
PickledData: "(dp1
S'org.robofab.postScriptHintData'
p2
(dp3
sS'com.typemytype.robofont.layerData'
p4
(dp5
S'b'
(dp6
S'name'
p7
S'B'
sS'lib'
p8
(dp9
sS'unicodes'
p10
(tsS'width'
p11
I1287
sS'contours'
p12
(tsS'components'
p13
(tsS'anchors'
p14
(tsss."
HStem: 0 84<241 878.136> 827 78<241 817.432> 1497 83<241 843.936>
VStem: 141 100<84 827 905 1497> 1033 78<1050.26 1350.44> 1122 85<276.609 631.499>
LayerCount: 2
Fore
SplineSet
241 905 m 1
 564 905 l 2
 807 905 1033 924 1033 1216 c 0
 1033 1482 724 1497 506 1497 c 0
 478 1497 452 1497 428 1497 c 2
 241 1497 l 1
 241 905 l 1
241 84 m 1
 524 84 l 2
 818 84 1122 106 1122 467 c 0
 1122 796 838 827 572 827 c 2
 241 827 l 1
 241 84 l 1
141 0 m 1
 141 1580 l 1
 471 1580 l 2
 772 1580 1111 1575 1111 1203 c 0
 1111 980 997 908 782 872 c 1
 1055 845 1207 691 1207 420 c 0
 1207 36 787 0 498 0 c 2
 141 0 l 1
EndSplineSet
Validated: 1
EndChar

StartChar: C
Encoding: 67 67 13
Width: 1270
VWidth: 0
Flags: W
PickledData: "(dp1
S'org.robofab.postScriptHintData'
p2
(dp3
sS'com.typemytype.robofont.layerData'
p4
(dp5
S'b'
(dp6
S'name'
p7
S'C'
sS'lib'
p8
(dp9
sS'unicodes'
p10
(tsS'width'
p11
I1270
sS'contours'
p12
(tsS'components'
p13
(tsS'anchors'
p14
(tsss."
HStem: -16 91<525.329 991.412> 1508 89<546.025 993.322>
VStem: 120 99<423.441 1130.72>
LayerCount: 2
Fore
SplineSet
1160 1479 m 1
 1121 1409 l 1
 1073 1435 918 1508 776 1508 c 0
 293 1508 219 1089 219 785 c 1
 219 470 280 75 761 75 c 0
 901 75 1062 140 1161 194 c 1
 1204 122 l 1
 1054 38 917 -16 777 -16 c 0
 235 -16 120 391 120 786 c 0
 120 1214 267 1597 780 1597 c 0
 968 1597 1094 1521 1160 1479 c 1
EndSplineSet
Validated: 1
EndChar

StartChar: D
Encoding: 68 68 19
Width: 1418
VWidth: 0
Flags: W
PickledData: "(dp1
S'org.robofab.postScriptHintData'
p2
(dp3
sS'com.typemytype.robofont.layerData'
p4
(dp5
S'b'
(dp6
S'name'
p7
S'D'
sS'lib'
p8
(dp9
sS'unicodes'
p10
(tsS'width'
p11
I1418
sS'contours'
p12
(tsS'components'
p13
(tsS'anchors'
p14
(tsss."
HStem: 0 84<241 908.718> 1495 85<241 895.28>
VStem: 141 100<84 1495> 1197 100<446.781 1117.69>
LayerCount: 2
Fore
SplineSet
141 0 m 1
 141 1580 l 1
 696 1580 l 2
 1175 1580 1297 1195 1297 791 c 0
 1297 384 1178 0 696 0 c 2
 141 0 l 1
241 84 m 1
 717 84 l 2
 1114 84 1197 490 1197 791 c 0
 1197 1090 1101 1495 717 1495 c 2
 241 1495 l 1
 241 84 l 1
EndSplineSet
Validated: 1
EndChar

StartChar: Dcroat
Encoding: 272 272 21
Width: 1448
VWidth: 0
Flags: W
PickledData: "(dp1
S'org.robofab.postScriptHintData'
p2
(dp3
s."
HStem: 0 143<366 933.759> 764 131<10 172 366 600> 1436 143<366 932.758>
VStem: 172 194<143 764 895 1436> 1183 201<441.069 1134.41>
LayerCount: 2
Fore
SplineSet
172 0 m 1
 172 764 l 1
 10 764 l 1
 10 895 l 1
 172 895 l 1
 172 1579 l 1
 725 1579 l 2
 1218 1579 1384 1231 1384 788 c 0
 1384 338 1221 0 725 0 c 2
 172 0 l 1
366 143 m 1
 725 143 l 2
 1118 143 1183 465 1183 789 c 0
 1183 1111 1114 1436 725 1436 c 2
 366 1436 l 1
 366 895 l 1
 600 895 l 1
 600 764 l 1
 366 764 l 1
 366 143 l 1
EndSplineSet
Validated: 1
EndChar

StartChar: E
Encoding: 69 69 22
Width: 1089
VWidth: 0
Flags: W
PickledData: "(dp1
S'org.robofab.postScriptHintData'
p2
(dp3
sS'com.typemytype.robofont.layerData'
p4
(dp5
S'b'
(dp6
S'name'
p7
S'E'
sS'lib'
p8
(dp9
sS'unicodes'
p10
(tsS'width'
p11
I1089
sS'contours'
p12
(tsS'components'
p13
(tsS'anchors'
p14
(tsss."
HStem: 0 76<242 1060> 815 56<242 933> 1504 76<242 1046>
VStem: 141 101<76 815 871 1504>
LayerCount: 2
Fore
SplineSet
141 0 m 1
 141 1580 l 1
 1046 1580 l 1
 1046 1504 l 1
 242 1504 l 1
 242 871 l 1
 933 871 l 1
 933 815 l 1
 242 815 l 1
 242 76 l 1
 1060 76 l 1
 1060 0 l 1
 141 0 l 1
EndSplineSet
Validated: 1
EndChar

StartChar: Eth
Encoding: 208 208 31
Width: 1432
VWidth: 0
Flags: W
PickledData: "(dp1
S'org.robofab.postScriptHintData'
p2
(dp3
s."
HStem: 0 84<290 974.081> 807 77<26 190 290 508> 1495 85<290 965.166>
VStem: 190 100<84 807 884 1495> 1240 110<423.293 1152.04>
LayerCount: 2
Fore
SplineSet
190 0 m 1
 190 807 l 1
 26 807 l 1
 26 884 l 1
 190 884 l 1
 190 1580 l 1
 771 1580 l 2
 1239 1580 1350 1187 1350 791 c 0
 1350 369 1235 0 771 0 c 2
 190 0 l 1
290 84 m 1
 792 84 l 2
 1171 84 1240 469 1240 792 c 0
 1240 1111 1160 1495 792 1495 c 2
 290 1495 l 1
 290 884 l 1
 508 884 l 1
 508 807 l 1
 290 807 l 1
 290 84 l 1
EndSplineSet
Validated: 1
EndChar

StartChar: Euro
Encoding: 8364 8364 32
Width: 775
VWidth: 0
Flags: W
PickledData: "(dp1
S'org.robofab.postScriptHintData'
p2
(dp3
s."
HStem: -39 67<418.745 779.881> 585 86<-53 124 224 584> 784 86<-68 128 224.585 637> 1305 49<434.119 789.031>
VStem: 124 100<310.29 585 671 784> 142 78<870 1130.67>
LayerCount: 2
Fore
SplineSet
529 -39 m 0xf8
 205 -39 127 406 128 585 c 1
 -53 585 l 1
 -53 671 l 1
 124 671 l 2xf8
 124 671 128 772 128 784 c 1
 -68 784 l 1
 -68 870 l 1
 150 870 l 1
 147 939 142 1002 142 1059 c 0
 142 1241 197 1353 574 1353 c 0
 589 1353 611 1354 638 1354 c 0
 695 1354 771 1349 844 1314 c 1
 823 1268 l 1
 750 1299 693 1305 650 1305 c 0
 621 1305 598 1302 580 1302 c 0
 326 1302 220 1156 220 951 c 0xf4
 220 925 222 898 225 870 c 1
 637 870 l 1
 637 784 l 1
 228 784 l 1
 225 760 224 737 224 716 c 0
 224 706 224 697 224 688 c 0
 224 682 224 676 224 671 c 1
 584 671 l 1
 584 585 l 1
 219 585 l 1
 218 567 217 548 217 528 c 0
 217 322 286 28 563 28 c 0
 638 28 752 38 840 87 c 1
 882 34 l 1
 780 -33 594 -39 529 -39 c 0xf8
EndSplineSet
Validated: 33
EndChar

StartChar: F
Encoding: 70 70 33
Width: 1039
VWidth: 0
Flags: W
PickledData: "(dp1
S'org.robofab.postScriptHintData'
p2
(dp3
sS'com.typemytype.robofont.layerData'
p4
(dp5
S'b'
(dp6
S'name'
p7
S'F'
sS'lib'
p8
(dp9
sS'unicodes'
p10
(tsS'width'
p11
I1039
sS'contours'
p12
(tsS'components'
p13
(tsS'anchors'
p14
(tsss."
HStem: 0 21G<141 245> 819 59<245 927> 1504 76<245 975>
VStem: 141 104<0 819 878 1504>
LayerCount: 2
Fore
SplineSet
141 0 m 1
 141 1580 l 1
 975 1580 l 1
 975 1504 l 1
 245 1504 l 1
 245 878 l 1
 927 878 l 1
 927 819 l 1
 245 819 l 1
 245 0 l 1
 141 0 l 1
EndSplineSet
Validated: 1
EndChar

StartChar: G
Encoding: 71 71 34
Width: 1411
VWidth: 0
Flags: W
PickledData: "(dp1
S'org.robofab.postScriptHintData'
p2
(dp3
sS'com.typemytype.robofont.layerData'
p4
(dp5
S'b'
(dp6
S'name'
p7
S'G'
sS'lib'
p8
(dp9
sS'unicodes'
p10
(tsS'width'
p11
I1411
sS'contours'
p12
((dp13
S'points'
p14
((dp15
S'segmentType'
p16
S'curve'
p17
sS'x'
F814
sS'smooth'
p18
I01
sS'y'
F1458
s(dp19
S'y'
F1458
sS'x'
F410
sg18
I00
s(dp20
S'y'
F1119
sS'x'
F308
sg18
I00
s(dp21
g16
S'curve'
p22
sS'x'
F308
sg18
I01
sS'y'
F784
s(dp23
S'y'
F452
sS'x'
F308
sg18
I00
s(dp24
S'y'
F111
sS'x'
F406
sg18
I00
s(dp25
g16
S'curve'
p26
sS'x'
F806
sg18
I01
sS'y'
F111
s(dp27
S'y'
F111
sS'x'
F937
sg18
I00
s(dp28
S'y'
F153
sS'x'
F1059
sg18
I00
s(dp29
g16
S'curve'
p30
sS'x'
F1169
sg18
I00
sS'y'
F215
s(dp31
g16
S'line'
p32
sS'x'
F1231
sg18
I00
sS'y'
F89
s(dp33
S'y'
F13
sS'x'
F1108
sg18
I00
s(dp34
S'y'
F-41
sS'x'
F962
sg18
I00
s(dp35
g16
S'curve'
p36
sS'x'
F794
sg18
I01
sS'y'
F-41
s(dp37
S'y'
F-41
sS'x'
F290
sg18
I00
s(dp38
S'y'
F348
sS'x'
F114
sg18
I00
s(dp39
g16
S'curve'
p40
sS'x'
F114
sg18
I01
sS'y'
F788
s(dp41
S'y'
F1252
sS'x'
F114
sg18
I00
s(dp42
S'y'
F1610
sS'x'
F311
sg18
I00
s(dp43
g16
S'curve'
p44
sS'x'
F814
sg18
I01
sS'y'
F1610
s(dp45
S'y'
F1610
sS'x'
F986
sg18
I00
s(dp46
S'y'
F1548
sS'x'
F1117
sg18
I00
s(dp47
g16
S'curve'
p48
sS'x'
F1202
sg18
I00
sS'y'
F1492
s(dp49
g16
S'line'
p50
sS'x'
F1144
sg18
I00
sS'y'
F1364
s(dp51
S'y'
F1409
sS'x'
F1070
sg18
I00
s(dp52
S'y'
F1458
sS'x'
F944
sg18
I00
stp53
stp54
sS'components'
p55
(tsS'anchors'
p56
(tsss."
HStem: -48 91<540.04 1023.39> 0 21G<1298.32 1321> 700 75<775 1200> 1523 91<534.886 1022.2>
VStem: 120 99<450.06 1147.53> 1200 121<241.459 700> 1303 18<0 61.2538>
LayerCount: 2
Fore
SplineSet
727 -48 m 0xba
 242 -48 120 466 120 795 c 0
 120 1193 236 1614 781 1614 c 0
 940 1614 1056 1569 1176 1486 c 1
 1131 1414 l 1
 1035 1498 883 1523 767 1523 c 0
 274 1523 219 1084 219 790 c 0
 219 476 266 43 779 43 c 0
 994 43 1208 121 1208 359 c 0
 1208 386 1206 414 1200 445 c 1
 1200 700 l 1xbc
 775 700 l 1
 775 775 l 1
 1321 775 l 1
 1321 0 l 1
 1303 0 l 1x7a
 1248 235 l 1
 1200 -14 914 -48 727 -48 c 0xba
EndSplineSet
Validated: 1
EndChar

StartChar: H
Encoding: 72 72 39
Width: 1459
VWidth: 0
Flags: W
PickledData: "(dp1
S'org.robofab.postScriptHintData'
p2
(dp3
sS'com.typemytype.robofont.layerData'
p4
(dp5
S'b'
(dp6
S'name'
p7
S'H'
sS'lib'
p8
(dp9
sS'unicodes'
p10
(tsS'width'
p11
I1459
sS'contours'
p12
(tsS'components'
p13
(tsS'anchors'
p14
(tsss."
HStem: 0 21G<141 241 1218 1319> 796 56<241 1218> 1560 20G<141 241 1218 1319>
VStem: 141 100<0 796 852 1580> 1218 101<0 796 852 1580>
LayerCount: 2
Fore
SplineSet
141 0 m 1
 141 1580 l 1
 241 1580 l 1
 241 852 l 1
 1218 852 l 1
 1218 1580 l 1
 1319 1580 l 1
 1319 0 l 1
 1218 0 l 1
 1218 796 l 1
 241 796 l 1
 241 0 l 1
 141 0 l 1
EndSplineSet
Validated: 1
EndChar

StartChar: I
Encoding: 73 73 41
Width: 733
VWidth: 0
Flags: W
PickledData: "(dp1
S'org.robofab.postScriptHintData'
p2
(dp3
sS'com.typemytype.robofont.layerData'
p4
(dp5
S'b'
(dp6
S'name'
p7
S'I'
sS'lib'
p8
(dp9
sS'unicodes'
p10
(tsS'width'
p11
I733
sS'contours'
p12
(tsS'components'
p13
(tsS'anchors'
p14
(tsss."
HStem: 0 44<102 324 407 632> 1526 54<102 324 407 632>
VStem: 324 83<44 1526>
LayerCount: 2
Fore
SplineSet
102 0 m 1
 102 44 l 1
 324 44 l 1
 324 1526 l 1
 102 1526 l 1
 102 1580 l 1
 632 1580 l 1
 632 1526 l 1
 407 1526 l 1
 407 44 l 1
 632 44 l 1
 632 0 l 1
 102 0 l 1
EndSplineSet
Validated: 1
EndChar

StartChar: J
Encoding: 74 74 51
Width: 634
VWidth: 0
Flags: W
PickledData: "(dp1
S'org.robofab.postScriptHintData'
p2
(dp3
sS'com.typemytype.robofont.layerData'
p4
(dp5
S'b'
(dp6
S'name'
p7
S'J'
sS'lib'
p8
(dp9
sS'unicodes'
p10
(tsS'width'
p11
I634
sS'contours'
p12
(tsS'components'
p13
(tsS'anchors'
p14
(tsss."
HStem: -92 66<94 202.109> 1560 20G<396 494>
VStem: 396 98<115.472 1580>
LayerCount: 2
Fore
SplineSet
94 -92 m 1
 72 -26 l 1
 380 23 396 142 396 375 c 0
 396 403 396 433 396 465 c 2
 396 1580 l 1
 494 1580 l 1
 494 518 l 2
 494 506 494 495 494 483 c 0
 494 187 487 -92 104 -92 c 0
 101 -92 97 -92 94 -92 c 1
EndSplineSet
Validated: 1
EndChar

StartChar: K
Encoding: 75 75 53
Width: 1198
VWidth: 0
Flags: W
PickledData: "(dp1
S'org.robofab.postScriptHintData'
p2
(dp3
sS'com.typemytype.robofont.layerData'
p4
(dp5
S'b'
(dp6
S'name'
p7
S'K'
sS'lib'
p8
(dp9
sS'unicodes'
p10
(tsS'width'
p11
I1198
sS'contours'
p12
(tsS'components'
p13
(tsS'anchors'
p14
(tsss."
HStem: 0 21G<141 241 1055.33 1196> 790 69<241 278> 1560 20G<141 241 1016.92 1141>
VStem: 141 100<0 790 859 1580>
LayerCount: 2
Fore
SplineSet
141 0 m 1
 141 1580 l 1
 241 1580 l 1
 241 859 l 1
 278 859 l 1
 1038 1580 l 1
 1141 1580 l 1
 374 829 l 1
 1196 0 l 1
 1075 0 l 1
 298 790 l 1
 241 790 l 1
 241 0 l 1
 141 0 l 1
EndSplineSet
Validated: 1
EndChar

StartChar: L
Encoding: 76 76 55
Width: 1116
VWidth: 0
Flags: W
PickledData: "(dp1
S'org.robofab.postScriptHintData'
p2
(dp3
sS'com.typemytype.robofont.layerData'
p4
(dp5
S'b'
(dp6
S'name'
p7
S'L'
sS'lib'
p8
(dp9
sS'unicodes'
p10
(tsS'width'
p11
I1116
sS'contours'
p12
(tsS'components'
p13
(tsS'anchors'
p14
(tsss."
HStem: 0 76<242 1054> 1560 20G<141 242>
VStem: 141 101<76 1580>
LayerCount: 2
Fore
SplineSet
141 0 m 1
 141 1580 l 1
 242 1580 l 1
 242 76 l 1
 1054 76 l 1
 1054 0 l 1
 141 0 l 1
EndSplineSet
Validated: 1
EndChar

StartChar: M
Encoding: 77 77 60
Width: 1739
VWidth: 0
Flags: W
PickledData: "(dp1
S'org.robofab.postScriptHintData'
p2
(dp3
sS'com.typemytype.robofont.layerData'
p4
(dp5
S'b'
(dp6
S'name'
p7
S'M'
sS'lib'
p8
(dp9
sS'unicodes'
p10
(tsS'width'
p11
I1739
sS'contours'
p12
(tsS'components'
p13
(tsS'anchors'
p14
(tsss."
HStem: 0 21G<141 244 1497 1598> 1560 20G<141 347.171 1391.94 1598>
VStem: 141 103<0 1567> 1497 101<0 1567>
LayerCount: 2
Fore
SplineSet
141 0 m 1
 141 1580 l 1
 339 1580 l 1
 873 273 l 1
 1400 1580 l 1
 1598 1580 l 1
 1598 0 l 1
 1497 0 l 1
 1497 1567 l 1
 896 172 l 1
 825 172 l 1
 244 1567 l 1
 244 0 l 1
 141 0 l 1
EndSplineSet
Validated: 1
EndChar

StartChar: N
Encoding: 78 78 61
Width: 1492
VWidth: 0
Flags: W
PickledData: "(dp1
S'org.robofab.postScriptHintData'
p2
(dp3
sS'com.typemytype.robofont.layerData'
p4
(dp5
S'b'
(dp6
S'name'
p7
S'N'
sS'lib'
p8
(dp9
sS'unicodes'
p10
(tsS'width'
p11
I1492
sS'contours'
p12
(tsS'components'
p13
(tsS'anchors'
p14
(tsss."
HStem: -20 20G<1258 1263 1263 1263> 0 21G<141 229 1141.32 1258 1258 1263 1263 1352> 1560 20G<141 229 229 230 230 343.722 1263 1352> 1580 21G<229 230>
VStem: 141 88<0 1580> 1263 89<0 1580>
LayerCount: 2
Fore
SplineSet
141 0 m 1x6c
 141 1580 l 1
 229 1580 l 1
 229 0 l 1
 141 0 l 1x6c
1263 0 m 1x8c
 1263 -9 l 1
 1258 0 l 1
 1263 0 l 1x8c
1263 0 m 1
 1263 1580 l 1
 1352 1580 l 1
 1352 0 l 1x6c
 1263 0 l 1
1258 0 m 1xac
 1153 0 l 1x4c
 230 1580 l 1
 332 1580 l 1
 1258 0 l 1xac
230 1580 m 1x2c
 229 1580 l 1
 229 1581 l 1
 230 1580 l 1x2c
EndSplineSet
Validated: 5
EndChar

StartChar: O
Encoding: 79 79 66
Width: 1488
VWidth: 0
Flags: W
PickledData: "(dp1
S'org.robofab.postScriptHintData'
p2
(dp3
sS'com.typemytype.robofont.guides'
p4
(tsS'com.typemytype.robofont.layerData'
p5
(dp6
S'b'
(dp7
S'name'
p8
S'O'
sS'lib'
p9
(dp10
sS'unicodes'
p11
(tsS'width'
p12
I1488
sS'contours'
p13
(tsS'components'
p14
(tsS'anchors'
p15
(tsss."
HStem: -16 91<520.448 963.641> 1506 91<527.407 959.565>
VStem: 120 99<436.93 1123.51> 1269 98<436.264 1139.13>
LayerCount: 2
Fore
SplineSet
742 -16 m 0
 270 -16 120 371 120 781 c 0
 120 1167 268 1597 742 1597 c 0
 1229 1597 1367 1202 1367 781 c 0
 1367 371 1217 -16 742 -16 c 0
742 75 m 0
 1181 75 1269 450 1269 781 c 0
 1269 1107 1187 1506 742 1506 c 0
 299 1506 219 1105 219 781 c 0
 219 453 299 75 742 75 c 0
EndSplineSet
Validated: 1
EndChar

StartChar: OE
Encoding: 338 338 67
Width: 2220
VWidth: 0
Flags: W
PickledData: "(dp1
S'org.robofab.postScriptHintData'
p2
(dp3
s."
HStem: -47 90<546.664 973.435> 0 76<1365 2212> 815 56<1365 2084> 1504 76<1365 2197> 1522 92<527.567 967.083>
VStem: 123 110<415.703 1151.54> 1265 100<76 167 412.58 815 871 1158.72 1370 1504>
LayerCount: 2
Fore
SplineSet
764 43 m 0xae
 1202 43 1265 474 1265 781 c 0
 1265 1107 1204 1522 750 1522 c 0
 292 1522 233 1105 233 781 c 0
 233 444 304 43 764 43 c 0xae
768 -47 m 0
 239 -47 123 353 123 781 c 0
 123 1167 236 1614 726 1614 c 0xae
 997 1614 1155 1528 1265 1370 c 1
 1265 1580 l 1
 2197 1580 l 1
 2197 1504 l 1
 1365 1504 l 1
 1365 871 l 1
 2084 871 l 1
 2084 815 l 1
 1365 815 l 1
 1365 76 l 1
 2212 76 l 1
 2212 0 l 1
 1265 0 l 1x76
 1265 167 l 1
 1161 26 1020 -47 768 -47 c 0
EndSplineSet
Validated: 1
EndChar

StartChar: Q
Encoding: 81 81 76
Width: 1508
VWidth: 0
Flags: W
PickledData: "(dp1
S'org.robofab.postScriptHintData'
p2
(dp3
sS'com.typemytype.robofont.layerData'
p4
(dp5
S'b'
(dp6
S'name'
p7
S'Q'
sS'lib'
p8
(dp9
sS'unicodes'
p10
(tsS'width'
p11
I1508
sS'contours'
p12
(tsS'components'
p13
(tsS'anchors'
p14
(tsss."
HStem: -426 21G<1180.07 1224.82> 1524 90<538.416 989.46>
VStem: 123 100<447.333 1142.32> 1285 100<445.356 1156.43>
LayerCount: 2
Fore
SplineSet
762 43 m 0
 1221 43 1285 453 1285 781 c 0
 1285 1134 1207 1524 762 1524 c 0
 301 1524 223 1105 223 781 c 0
 223 452 308 43 762 43 c 0
1207 -426 m 1
 694 -45 l 1
 246 -1 123 428 123 794 c 0
 123 1188 264 1614 762 1614 c 0
 1265 1614 1385 1193 1385 781 c 0
 1385 445 1266 37 869 -27 c 1
 1297 -325 l 1
 1207 -426 l 1
EndSplineSet
Validated: 1
EndChar

StartChar: R
Encoding: 82 82 77
Width: 1304
VWidth: 0
Flags: W
PickledData: "(dp1
S'org.robofab.postScriptHintData'
p2
(dp3
sS'com.typemytype.robofont.layerData'
p4
(dp5
S'b'
(dp6
S'name'
p7
S'R'
sS'lib'
p8
(dp9
sS'unicodes'
p10
(tsS'width'
p11
I1304
sS'contours'
p12
(tsS'components'
p13
(tsS'anchors'
p14
(tsss."
HStem: 0 21G<141 241 1122.52 1201> 769 73<241 949.362> 1485 99<241 971.383>
VStem: 141 100<0 769 842 1480> 1135 63<0 253.952 1011.64 1326.34>
LayerCount: 2
Fore
SplineSet
241 842 m 1
 768 842 l 2
 921 842 1135 857 1135 1166 c 0
 1135 1447 948 1485 742 1485 c 0
 667 1485 589 1480 517 1480 c 2
 241 1480 l 1
 241 842 l 1
141 0 m 1
 141 1580 l 1
 493 1580 l 2
 547 1580 615 1584 686 1584 c 0
 920 1584 1198 1540 1198 1158 c 0
 1198 1001 1097 861 970 811 c 1
 1114 802 1185 590 1192 369 c 1
 1201 0 l 1
 1123 0 l 1
 1114 372 l 1
 1104 677 1076 769 634 769 c 2
 241 769 l 1
 241 0 l 1
 141 0 l 1
EndSplineSet
Validated: 1
EndChar

StartChar: S
Encoding: 83 83 81
Width: 1190
VWidth: 0
Flags: W
PickledData: "(dp1
S'org.robofab.postScriptHintData'
p2
(dp3
sS'com.typemytype.robofont.guides'
p4
(tsS'com.typemytype.robofont.layerData'
p5
(dp6
S'b'
(dp7
S'name'
p8
S'S'
sS'lib'
p9
(dp10
sS'unicodes'
p11
(tsS'width'
p12
I1190
sS'contours'
p13
(tsS'components'
p14
(tsS'anchors'
p15
(tsss."
HStem: -16 85<339.703 839.321> 1520 77<373.704 812.092>
VStem: 99 88<1071.18 1371.61> 1015 90<223.852 585.609>
LayerCount: 2
Fore
SplineSet
553 -16 m 0
 445 -16 186 65 94 125 c 1
 131 195 l 1
 188 159 383 69 595 69 c 0
 817 69 1015 126 1015 416 c 0
 1015 649 834 733 658 785 c 1
 606 804 588 804 571 804 c 2
 570 804 l 2
 552 804 533 804 476 824 c 1
 304 867 99 934 99 1203 c 0
 99 1454 315 1597 555 1597 c 0
 705 1597 845 1578 1001 1465 c 1
 959 1403 l 1
 878 1468 738 1520 615 1520 c 0
 416 1520 187 1464 187 1209 c 0
 187 1025 350 970 513 921 c 1
 608 887 574 916 670 882 c 1
 886 821 1105 750 1105 406 c 0
 1105 55 852 -16 553 -16 c 0
EndSplineSet
Validated: 1
EndChar

StartChar: T
Encoding: 84 84 86
Width: 1125
VWidth: 0
Flags: W
PickledData: "(dp1
S'org.robofab.postScriptHintData'
p2
(dp3
sS'com.typemytype.robofont.layerData'
p4
(dp5
S'b'
(dp6
S'name'
p7
S'T'
sS'lib'
p8
(dp9
sS'unicodes'
p10
(tsS'width'
p11
I1125
sS'contours'
p12
(tsS'components'
p13
(tsS'anchors'
p14
(tsss."
HStem: 0 21G<515 609> 1504 76<28 515 609 1097>
VStem: 515 94<0 1504>
LayerCount: 2
Fore
SplineSet
515 0 m 1
 515 1504 l 1
 28 1504 l 1
 28 1580 l 1
 1097 1580 l 1
 1097 1504 l 1
 609 1504 l 1
 609 0 l 1
 515 0 l 1
EndSplineSet
Validated: 1
EndChar

StartChar: U
Encoding: 85 85 88
Width: 1421
VWidth: 0
Flags: W
PickledData: "(dp1
S'org.robofab.postScriptHintData'
p2
(dp3
sS'com.typemytype.robofont.layerData'
p4
(dp5
S'b'
(dp6
S'name'
p7
S'U'
sS'lib'
p8
(dp9
sS'unicodes'
p10
(tsS'width'
p11
I1421
sS'contours'
p12
(tsS'components'
p13
(tsS'anchors'
p14
(tsss."
HStem: -48 74<485.211 938.522> 1560 20G<121 218 1197 1301>
VStem: 121 97<312.632 1580> 1197 104<313.938 1580>
LayerCount: 2
Fore
SplineSet
709 -48 m 0
 212 -48 121 275 121 689 c 2
 121 1580 l 1
 218 1580 l 1
 218 685 l 2
 218 342 255 26 714 26 c 0
 1175 26 1197 345 1197 685 c 2
 1197 1580 l 1
 1301 1580 l 1
 1301 689 l 2
 1301 277 1211 -48 709 -48 c 0
EndSplineSet
Validated: 1
EndChar

StartChar: V
Encoding: 86 86 99
Width: 1239
VWidth: 0
Flags: W
PickledData: "(dp1
S'org.robofab.postScriptHintData'
p2
(dp3
sS'com.typemytype.robofont.layerData'
p4
(dp5
S'b'
(dp6
S'name'
p7
S'V'
sS'lib'
p8
(dp9
sS'unicodes'
p10
(tsS'width'
p11
I1239
sS'contours'
p12
(tsS'components'
p13
(tsS'anchors'
p14
(tsss."
HStem: -20 20G<615 619 619 623> 0 9G<525.747 615 615 623 623 717.266> 1560 20G<38 152.924 1095.94 1206>
LayerCount: 2
Fore
SplineSet
623 0 m 1xa0
 619 -12 l 1
 615 0 l 1
 623 0 l 1xa0
623 0 m 1
 1102 1580 l 1
 1206 1580 l 1
 711 0 l 1x60
 623 0 l 1
615 0 m 1xa0
 532 0 l 1x60
 38 1580 l 1
 147 1580 l 1
 615 0 l 1xa0
EndSplineSet
Validated: 5
EndChar

StartChar: W
Encoding: 87 87 100
Width: 1958
VWidth: 0
Flags: W
PickledData: "(dp1
S'org.robofab.postScriptHintData'
p2
(dp3
sS'com.typemytype.robofont.layerData'
p4
(dp5
S'b'
(dp6
S'name'
p7
S'W'
sS'lib'
p8
(dp9
sS'unicodes'
p10
(tsS'width'
p11
I1958
sS'contours'
p12
(tsS'components'
p13
(tsS'anchors'
p14
(tsss."
HStem: 0 21G<422.633 626.291 1330.03 1532.41> 1560 20G<4 107.529 1851.43 1954>
LayerCount: 2
Fore
SplineSet
428 0 m 1
 4 1580 l 1
 102 1580 l 1
 525 50 l 1
 894 1448 l 1
 1083 1448 l 1
 1431 50 l 1
 1857 1580 l 1
 1954 1580 l 1
 1527 0 l 1
 1335 0 l 1
 989 1391 l 1
 621 0 l 1
 428 0 l 1
EndSplineSet
Validated: 1
EndChar

StartChar: X
Encoding: 88 88 101
Width: 1306
VWidth: 0
Flags: W
PickledData: "(dp1
S'org.robofab.postScriptHintData'
p2
(dp3
sS'com.typemytype.robofont.layerData'
p4
(dp5
S'b'
(dp6
S'name'
p7
S'X'
sS'lib'
p8
(dp9
sS'unicodes'
p10
(tsS'width'
p11
I1306
sS'contours'
p12
(tsS'components'
p13
(tsS'anchors'
p14
(tsss."
HStem: 0 21G<92 316 1077.12 1215> 1560 20G<95 204.257 1102.71 1212>
LayerCount: 2
Fore
SplineSet
92 0 m 1
 596 802 l 1
 95 1580 l 1
 191 1580 l 1
 653 883 l 1
 1116 1580 l 1
 1212 1580 l 1
 710 802 l 1
 1215 0 l 1
 1089 0 l 1
 653 734 l 1
 454 402 415 333 217 0 c 1
 92 0 l 1
EndSplineSet
Validated: 1
EndChar

StartChar: Y
Encoding: 89 89 102
Width: 1260
VWidth: 0
Flags: W
PickledData: "(dp1
S'org.robofab.postScriptHintData'
p2
(dp3
sS'com.typemytype.robofont.layerData'
p4
(dp5
S'b'
(dp6
S'name'
p7
S'Y'
sS'lib'
p8
(dp9
sS'unicodes'
p10
(tsS'width'
p11
I1260
sS'contours'
p12
(tsS'components'
p13
(tsS'anchors'
p14
(tsss."
HStem: 0 21G<578 683> 1560 20G<61 270 1096.61 1200>
VStem: 578 105<0 578>
LayerCount: 2
Fore
SplineSet
578 0 m 1
 578 578 l 1
 61 1580 l 1
 166 1580 l 1
 374 1153 416 1088 631 664 c 1
 1107 1580 l 1
 1200 1580 l 1
 683 578 l 1
 683 0 l 1
 578 0 l 1
EndSplineSet
Validated: 1
EndChar

StartChar: Z
Encoding: 90 90 105
Width: 1176
VWidth: 0
Flags: W
PickledData: "(dp1
S'org.robofab.postScriptHintData'
p2
(dp3
sS'com.typemytype.robofont.layerData'
p4
(dp5
S'b'
(dp6
S'name'
p7
S'Z'
sS'lib'
p8
(dp9
sS'unicodes'
p10
(tsS'width'
p11
I1176
sS'contours'
p12
(tsS'components'
p13
(tsS'anchors'
p14
(tsss."
HStem: 0 76<228 1097> 1520 60<139 1009>
LayerCount: 2
Fore
SplineSet
139 0 m 1
 139 142 l 1
 1009 1520 l 1
 139 1520 l 1
 139 1580 l 1
 1095 1580 l 1
 1095 1454 l 1
 228 76 l 1
 1097 76 l 1
 1097 0 l 1
 139 0 l 1
EndSplineSet
Validated: 1
EndChar

StartChar: a
Encoding: 97 97 109
Width: 1172
VWidth: 0
Flags: W
PickledData: "(dp1
S'org.robofab.postScriptHintData'
p2
(dp3
sS'com.typemytype.robofont.layerData'
p4
(dp5
S'b'
(dp6
S'name'
p7
S'a'
sS'lib'
p8
(dp9
sS'unicodes'
p10
(tsS'width'
p11
I1172
sS'contours'
p12
(tsS'components'
p13
(tsS'anchors'
p14
(tsss."
HStem: -17 85<330.771 709.872> 0 21G<964.238 1036> 627 81<371.12 842.886> 1097 90<354.468 820.508>
VStem: 107 128<158.577 509.785> 931 105<217.967 589.293 642 979.546> 966 70<0 162.756>
LayerCount: 2
Fore
SplineSet
235 348 m 0xbc
 235 138 320 68 521 68 c 0
 676 68 818 154 931 255 c 1
 931 578 l 1
 816 610 705 627 587 627 c 0
 396 627 235 572 235 348 c 0xbc
237 990 m 1
 175 1071 l 1
 305 1140 420 1187 574 1187 c 0
 954 1187 1036 1058 1036 692 c 2xbc
 1036 0 l 1
 966 0 l 1x7a
 949 193 l 1
 826 28 681 -17 499 -17 c 0
 265 -17 107 92 107 333 c 0
 107 572 260 697 546 708 c 0
 550 708 555 708 560 708 c 0
 666 708 838 676 931 642 c 1
 930 693 l 2
 930 698 930 703 930 708 c 0
 930 962 902 1097 619 1097 c 0
 477 1097 330 1061 237 990 c 1
EndSplineSet
Validated: 1
EndChar

StartChar: acute
Encoding: 180 180 113
Width: 73
VWidth: 0
Flags: W
PickledData: "(dp1
S'org.robofab.postScriptHintData'
p2
(dp3
s."
HStem: -192 449
VStem: -144 447
LayerCount: 2
Fore
SplineSet
-141 -192 m 1
 -144 -192 l 1
 223 257 l 1
 303 180 l 1
 -141 -192 l 1
EndSplineSet
Validated: 1
EndChar

StartChar: ae
Encoding: 230 230 115
Width: 1782
VWidth: 0
Flags: W
PickledData: "(dp1
S'org.robofab.postScriptHintData'
p2
(dp3
sS'com.typemytype.robofont.layerData'
p4
(dp5
S'b'
(dp6
S'name'
p7
S'ae'
p8
sS'lib'
p9
(dp10
sS'unicodes'
p11
(tsS'width'
p12
I1782
sS'contours'
p13
(tsS'components'
p14
(tsS'anchors'
p15
(tsss."
HStem: -26 92<230.383 604.93 1119.46 1475.49> 602 83<918 1630> 613 94<254.94 732.352> 1114 78<333.415 674.656 1125.74 1475.78>
VStem: 20 117<158.469 501.477> 802 116<274.777 591.802 685 914.589> 1630 106<685 935.944>
LayerCount: 2
Fore
SplineSet
918 685 m 1xde
 1630 685 l 1
 1630 730 l 2
 1630 733 1630 735 1630 738 c 0
 1630 935 1552 1114 1312 1114 c 0
 1039 1114 918 938 918 685 c 1xde
435 66 m 0
 577 66 707 161 802 250 c 1
 802 585 l 1
 704 602 604 613 500 613 c 0xbe
 328 613 137 584 137 340 c 0
 137 131 228 66 435 66 c 0
408 -26 m 0
 178 -26 20 83 20 327 c 0
 20 570 203 707 417 707 c 0xbe
 517 707 702 684 802 637 c 1
 802 696 l 2
 802 705 802 714 802 723 c 0
 802 974 784 1106 500 1106 c 0
 499 1106 498 1106 497 1106 c 0
 406 1106 233 1059 157 978 c 1
 80 1048 l 1
 166 1133 379 1192 478 1192 c 0
 654 1192 830 1163 882 934 c 1
 958 1111 1137 1192 1307 1192 c 0
 1619 1192 1736 949 1736 681 c 0
 1736 626 1731 657 1724 602 c 1
 918 602 l 1xde
 918 592 918 582 918 572 c 0
 918 297 976 76 1308 76 c 0
 1425 76 1537 125 1624 206 c 1
 1684 109 l 1
 1608 38 1422 -27 1324 -27 c 0
 1152 -27 966 43 866 211 c 1
 757 85 588 -26 408 -26 c 0
EndSplineSet
Validated: 1
EndChar

StartChar: ampersand
Encoding: 38 38 118
Width: 1404
VWidth: 0
Flags: W
PickledData: "(dp1
S'org.robofab.postScriptHintData'
p2
(dp3
s."
HStem: -38 69<305.29 791.26> 1269 87<303.088 657.22>
VStem: 7 112<188.953 585.986> 130 95<947.328 1196.61> 753 105<930.227 1185.12> 1068 98<315.612 740>
LayerCount: 2
Fore
SplineSet
528 32 m 0
 544 32 563 31 587 31 c 0
 705 31 909 46 1021 221 c 1
 357 736 l 1
 183 702 119 575 119 396 c 0
 119 81 297 32 528 32 c 0
429 808 m 1
 571 849 753 870 753 1057 c 0
 753 1215 610 1269 482 1269 c 0
 350 1269 225 1231 225 1056 c 0
 225 963 345 849 429 808 c 1
1274 18 m 1
 1078 182 l 1
 999 -5 633 -38 528 -38 c 0
 297 -38 7 64 7 375 c 0
 7 576 97 732 326 782 c 1
 223 839 130 947 130 1030 c 0
 130 1269 307 1356 487 1356 c 0
 663 1356 858 1277 858 1030 c 0
 858 801 625 803 459 757 c 1
 1047 306 l 1
 1061 514 1068 532 1068 740 c 1
 1166 743 l 1
 1166 705 1166 672 1166 640 c 0
 1166 527 1162 437 1123 234 c 1
 1327 76 l 1
 1274 18 l 1
EndSplineSet
Validated: 1
EndChar

StartChar: approxequal
Encoding: 8776 8776 120
Width: 838
VWidth: 0
Flags: W
PickledData: "(dp1
S'org.robofab.postScriptHintData'
p2
(dp3
s."
HStem: -83 95<446.702 622.661> 19 109<199.071 375.789>
VStem: 63 128<-90 14.9347> 635 122<17.6719 127>
LayerCount: 2
Fore
SplineSet
586 -83 m 0
 415 -83 345 19 250 19 c 0
 196 19 191 -42 191 -74 c 0
 191 -82 191 -87 191 -90 c 1
 63 -90 l 1
 63 2 89 128 249 128 c 1
 410 123 452 12 575 12 c 0
 633 12 635 112 635 127 c 1
 757 127 l 1
 757 49 719 -83 586 -83 c 0
EndSplineSet
Validated: 1
EndChar

StartChar: asciicircum
Encoding: 94 94 122
Width: 688
VWidth: 0
Flags: W
PickledData: "(dp1
S'org.robofab.postScriptHintData'
p2
(dp3
s."
HStem: 362 557
VStem: 28 632
LayerCount: 2
Fore
SplineSet
28 482 m 1
 338 919 l 1
 349 919 l 1
 660 482 l 1
 610 362 l 1
 344 735 l 1
 79 362 l 1
 28 482 l 1
EndSplineSet
Validated: 1
EndChar

StartChar: asciitilde
Encoding: 126 126 123
Width: 846
VWidth: 0
Flags: W
PickledData: "(dp1
S'org.robofab.postScriptHintData'
p2
(dp3
s."
HStem: 433 90<453.766 623.934> 541 102<207.428 373.68>
VStem: 69 129<425 538.84> 637 126<528.991 643>
LayerCount: 2
Fore
SplineSet
592 433 m 0
 451 433 324 541 259 541 c 0
 203 541 198 479 198 444 c 0
 198 436 198 429 198 425 c 1
 69 425 l 1
 69 517 96 643 255 643 c 0
 256 643 257 643 258 643 c 0
 390 643 469 523 576 523 c 0
 635 523 637 621 637 643 c 1
 763 643 l 1
 763 564 726 433 592 433 c 0
EndSplineSet
Validated: 1
EndChar

StartChar: asterisk
Encoding: 42 42 124
Width: 1020
VWidth: 0
Flags: W
PickledData: "(dp1
S'org.robofab.postScriptHintData'
p2
(dp3
s."
HStem: 1148 56<134 451 547 875>
LayerCount: 2
Fore
SplineSet
663 831 m 1
 499 1122 l 1
 466 1061 338 831 337 828 c 1
 323 835 284 858 270 865 c 1
 451 1148 l 1
 134 1148 l 1
 134 1204 l 1
 454 1204 l 1
 291 1482 l 1
 361 1521 l 1
 500 1232 l 1
 525 1288 634 1505 640 1521 c 1
 654 1513 695 1491 709 1484 c 1
 546 1204 l 1
 875 1204 l 1
 875 1148 l 1
 547 1148 l 1
 729 864 l 1
 663 831 l 1
337 828 m 1
 337 828 l 1
337 828 m 1
 337 829 l 1
 340 827 342 826 342 826 c 0
 342 826 340 826 337 828 c 1
270 865 m 1
 270 864 l 1
 267 866 265 867 265 867 c 0
 265 867 267 867 270 865 c 1
639 1521 m 1
 640 1521 l 1
 639 1521 l 1
639 1521 m 1
 636 1523 634 1524 634 1524 c 0
 634 1524 636 1523 639 1521 c 1
709 1484 m 1
 712 1482 714 1481 714 1481 c 0
 714 1481 712 1482 709 1484 c 1
EndSplineSet
Validated: 5
EndChar

StartChar: at
Encoding: 64 64 125
Width: 1827
VWidth: 0
Flags: W
PickledData: "(dp1
S'org.robofab.postScriptHintData'
p2
(dp3
sS'com.typemytype.robofont.layerData'
p4
(dp5
S'b'
(dp6
S'name'
p7
S'at'
p8
sS'lib'
p9
(dp10
sS'unicodes'
p11
(tsS'width'
p12
I1827
sS'contours'
p13
(tsS'components'
p14
(tsS'anchors'
p15
(tsss."
HStem: 31 89<848.751 1198.01> 359 87<1337.09 1447.62> 366 97<617.157 930.4> 1238 68<905.769 1242.88> 1519 86<678.429 1248.65>
VStem: 111 101<552.424 1052.08> 431 113<530.069 884.796> 1246 117<873.709 1227.89> 1255 80<447.915 851> 1599 96<687.424 1194.76>
LayerCount: 2
Fore
SplineSet
773 463 m 0xbf40
 774 463 775 463 776 463 c 0
 1198 463 1204 834 1246 1221 c 1
 1179 1234 1140 1238 1103 1238 c 0
 1092 1238 1082 1237 1071 1237 c 0
 790 1237 584 1001 549 761 c 0
 546 734 544 709 544 685 c 0
 544 548 603 463 768 463 c 0
 770 463 771 463 773 463 c 0xbf40
936 1605 m 0
 1354 1605 1695 1421 1695 934 c 0
 1695 597 1473 359 1345 359 c 0
 1274 359 1255 402 1255 495 c 0xdec0
 1255 555 1256 706 1256 797 c 0
 1256 820 1256 838 1256 851 c 1
 1191 560 974 366 740 366 c 0
 508 366 431 488 431 648 c 0
 431 680 435 713 440 748 c 0
 488 1096 779 1305 1066 1306 c 0
 1071 1306 1075 1306 1080 1306 c 0
 1314 1306 1363 1262 1363 1220 c 0xbf40
 1363 1215 1362 1209 1361 1204 c 1
 1342 541 l 1
 1337 526 1335 512 1335 500 c 0
 1335 464 1355 446 1377 446 c 0xdec0
 1465 446 1599 685 1599 956 c 0
 1599 1381 1312 1519 957 1519 c 0
 493 1519 212 1234 212 766 c 0
 212 336 540 120 899 120 c 0
 1046 120 1244 169 1344 212 c 1
 1381 112 l 1
 1243 73 1013 31 901 31 c 1
 683 231 111 265 111 758 c 0
 111 1300 495 1605 936 1605 c 0
EndSplineSet
Validated: 5
EndChar

StartChar: b
Encoding: 98 98 127
Width: 1225
VWidth: 0
Flags: W
PickledData: "(dp1
S'org.robofab.postScriptHintData'
p2
(dp3
sS'com.typemytype.robofont.layerData'
p4
(dp5
S'b'
(dp6
S'name'
p7
S'b'
sS'lib'
p8
(dp9
sS'unicodes'
p10
(tsS'width'
p11
I1225
sS'contours'
p12
(tsS'components'
p13
(tsS'anchors'
p14
(tsss."
HStem: -17 90<459.396 823.232> 0 21G<135 219.217> 1087 100<444.511 808.705>
VStem: 135 104<225.334 960.839 1014 1580> 135 84<0 184> 1009 92<311.679 852.228>
LayerCount: 2
Fore
SplineSet
676 73 m 0xb4
 983 73 1009 423 1009 583 c 0
 1009 721 980 1087 659 1087 c 0
 523 1087 326 1008 239 927 c 1
 239 261 l 1
 356 148 509 73 676 73 c 0xb4
622 -17 m 0
 486 -17 336 63 221 184 c 1
 219 0 l 1
 135 0 l 1x6c
 135 1580 l 1
 239 1601 l 1
 239 1014 l 1
 327 1096 491 1187 607 1187 c 0
 987 1187 1101 842 1101 577 c 0
 1101 323 984 -17 622 -17 c 0
EndSplineSet
Validated: 1
EndChar

StartChar: backslash
Encoding: 92 92 128
Width: 464
VWidth: 0
Flags: W
PickledData: "(dp1
S'org.robofab.postScriptHintData'
p2
(dp3
s."
LayerCount: 2
Fore
SplineSet
508 -185 m 1
 -140 1733 l 1
 -69 1755 l 1
 582 -156 l 1
 508 -185 l 1
EndSplineSet
Validated: 1
EndChar

StartChar: bar
Encoding: 124 124 129
Width: 234
VWidth: 0
Flags: W
PickledData: "(dp1
S'org.robofab.postScriptHintData'
p2
(dp3
s."
VStem: 63 108<-92 1712>
LayerCount: 2
Fore
SplineSet
63 -92 m 1
 63 1712 l 1
 171 1712 l 1
 171 -92 l 1
 63 -92 l 1
EndSplineSet
Validated: 1
EndChar

StartChar: bracketleft
Encoding: 91 91 130
Width: 762
VWidth: 0
Flags: W
PickledData: "(dp1
S'org.robofab.postScriptHintData'
p2
(dp3
s."
HStem: 0 79<182 681> 1500 80<182 681>
VStem: 63 119<79 1500>
LayerCount: 2
Fore
SplineSet
63 0 m 1
 63 1580 l 1
 681 1580 l 1
 681 1500 l 1
 182 1500 l 1
 182 79 l 1
 681 79 l 1
 681 0 l 1
 63 0 l 1
EndSplineSet
Validated: 1
EndChar

StartChar: bracketright
Encoding: 93 93 131
Width: 762
VWidth: 0
Flags: W
PickledData: "(dp1
S'org.robofab.postScriptHintData'
p2
(dp3
s."
HStem: 0 79<55 556> 1500 80<55 556>
VStem: 556 117<79 1500>
LayerCount: 2
Fore
SplineSet
55 0 m 1
 55 79 l 1
 556 79 l 1
 556 1500 l 1
 55 1500 l 1
 55 1580 l 1
 673 1580 l 1
 673 0 l 1
 55 0 l 1
EndSplineSet
Validated: 1
EndChar

StartChar: breve
Encoding: 728 728 132
Width: 521
VWidth: 0
Flags: W
PickledData: "(dp1
S'org.robofab.postScriptHintData'
p2
(dp3
s."
HStem: 670 54<177.182 337.659>
VStem: 33 76<780.365 887> 400 76<774.409 887>
LayerCount: 2
Fore
SplineSet
262 670 m 0
 121 670 33 768 33 876 c 0
 33 880 33 883 33 887 c 1
 109 887 l 1
 108 807 167 724 259 724 c 0
 350 724 401 804 400 887 c 1
 476 887 l 1
 476 883 476 880 476 876 c 0
 476 774 397 670 262 670 c 0
EndSplineSet
Validated: 33
EndChar

StartChar: brokenbar
Encoding: 166 166 133
Width: 257
VWidth: 0
Flags: W
PickledData: "(dp1
S'org.robofab.postScriptHintData'
p2
(dp3
s."
VStem: 67 123<79 739 872 1532>
LayerCount: 2
Fore
SplineSet
67 872 m 1
 67 1532 l 1
 190 1532 l 1
 190 872 l 1
 67 872 l 1
67 79 m 1
 67 739 l 1
 190 739 l 1
 190 79 l 1
 67 79 l 1
EndSplineSet
Validated: 1
EndChar

StartChar: bullet
Encoding: 8226 8226 134
Width: 769
VWidth: 0
Flags: W
PickledData: "(dp1
S'org.robofab.postScriptHintData'
p2
(dp3
s."
HStem: 380 639<218.175 546.996>
VStem: 58 652<538.214 857.086>
LayerCount: 2
Fore
SplineSet
381 380 m 0
 198 380 58 519 58 698 c 0
 58 889 205 1019 385 1019 c 0
 565 1019 710 879 710 698 c 0
 710 499 556 380 381 380 c 0
EndSplineSet
Validated: 1
EndChar

StartChar: c
Encoding: 99 99 135
Width: 1083
VWidth: 0
Flags: W
PickledData: "(dp1
S'org.robofab.postScriptHintData'
p2
(dp3
sS'com.typemytype.robofont.layerData'
p4
(dp5
S'b'
(dp6
S'name'
p7
S'c'
sS'lib'
p8
(dp9
sS'unicodes'
p10
(tsS'width'
p11
I1083
sS'contours'
p12
(tsS'components'
p13
(tsS'anchors'
p14
(tsss."
HStem: -13 81<468.569 829.916> 1103 81<469.921 829.216>
VStem: 118 98<339.326 820.162>
LayerCount: 2
Fore
SplineSet
118 585 m 0
 118 890 303 1184 631 1184 c 0
 759 1184 882 1146 996 1042 c 1
 949 979 l 1
 867 1056 776 1103 636 1103 c 0
 363 1103 216 844 216 585 c 0
 216 306 365 68 639 68 c 0
 764 68 849 101 950 187 c 1
 980 120 l 1
 873 28 756 -13 633 -13 c 0
 286 -13 118 281 118 585 c 0
EndSplineSet
Validated: 1
EndChar

StartChar: caron
Encoding: 711 711 137
Width: 688
VWidth: 0
Flags: W
PickledData: "(dp1
S'org.robofab.postScriptHintData'
p2
(dp3
s."
HStem: -32 485
VStem: 28 632
LayerCount: 2
Fore
SplineSet
338 -32 m 1
 28 334 l 1
 63 453 l 1
 344 65 l 1
 625 453 l 1
 660 334 l 1
 349 -32 l 1
 338 -32 l 1
EndSplineSet
Validated: 1
EndChar

StartChar: cedilla
Encoding: 184 184 142
Width: 418
VWidth: 0
Flags: W
PickledData: "(dp1
S'org.robofab.postScriptHintData'
p2
(dp3
s."
HStem: -531 95<63.4321 340.294> -416 20G<61 84> -157 87<233 325.941>
VStem: 111 122<-70 117> 360 101<-414.141 -191.673>
LayerCount: 2
Fore
SplineSet
229 -531 m 0
 174 -531 118 -514 61 -502 c 1
 61 -396 l 1
 107 -409 204 -436 221 -436 c 0
 330 -436 360 -402 360 -289 c 0
 360 -171 257 -157 177 -157 c 0
 151 -157 128 -158 111 -158 c 1
 106 117 l 1
 227 117 l 1
 233 -70 l 1
 430 -70 461 -143 461 -298 c 0
 461 -303 461 -309 461 -314 c 0
 461 -471 370 -531 229 -531 c 0
EndSplineSet
Validated: 1
EndChar

StartChar: circumflex
Encoding: 710 710 143
Width: 688
VWidth: 0
Flags: W
PickledData: "(dp1
S'org.robofab.postScriptHintData'
p2
(dp3
s."
HStem: -32 485
VStem: 28 632
LayerCount: 2
Fore
SplineSet
28 88 m 1
 338 453 l 1
 349 453 l 1
 660 88 l 1
 625 -32 l 1
 344 357 l 1
 63 -32 l 1
 28 88 l 1
EndSplineSet
Validated: 1
EndChar

StartChar: colon
Encoding: 58 58 144
Width: 404
VWidth: 0
Flags: W
PickledData: "(dp1
S'org.robofab.postScriptHintData'
p2
(dp3
sS'com.typemytype.robofont.layerData'
p4
(dp5
S'b'
(dp6
S'name'
p7
S'colon'
p8
sS'lib'
p9
(dp10
sS'unicodes'
p11
(tsS'width'
p12
I404
sS'contours'
p13
(tsS'components'
p14
(tsS'anchors'
p15
(tsss."
HStem: 0 200<102 303> 501 202<102 303>
VStem: 102 201<0 200 501 703>
LayerCount: 2
Fore
SplineSet
102 501 m 1
 102 703 l 1
 303 703 l 1
 303 501 l 1
 102 501 l 1
102 0 m 1
 102 200 l 1
 303 200 l 1
 303 0 l 1
 102 0 l 1
EndSplineSet
Validated: 1
EndChar

StartChar: comma
Encoding: 44 44 145
Width: 415
VWidth: 0
Flags: W
PickledData: "(dp1
S'org.robofab.postScriptHintData'
p2
(dp3
s."
HStem: -224 83<137.227 168.902> 0 228<99 205>
VStem: 99 208<3.35464 228> 205 102<-109.744 0>
LayerCount: 2
Fore
SplineSet
145 -224 m 1xe0
 100 -141 l 1
 163 -121 206 -91 205 0 c 1xd0
 99 0 l 1
 99 228 l 1
 307 228 l 1
 307 39 l 2
 307 -69 279 -186 145 -224 c 1xe0
EndSplineSet
Validated: 33
EndChar

StartChar: copyright
Encoding: 169 169 146
Width: 1676
VWidth: 0
Flags: W
PickledData: "(dp1
S'org.robofab.postScriptHintData'
p2
(dp3
s."
HStem: 36 65<603.859 1050.64> 371 93<598.092 1080.8> 1184 21G<1106 1151> 1250 91<594.349 1080.02> 1612 66<614.384 1028.58>
VStem: -19 91<596.387 1097.32> 327 122<611.209 1091.33> 1575 90<590.18 1093.94>
LayerCount: 2
Fore
SplineSet
822 101 m 0
 1253 101 1575 409 1575 850 c 0
 1575 1319 1178 1612 832 1612 c 0
 386 1612 72 1241 72 854 c 0
 72 413 398 101 822 101 c 0
826 36 m 0
 352 36 -19 398 -19 854 c 0
 -19 1292 350 1678 830 1678 c 0
 1156 1678 1665 1368 1665 877 c 0
 1665 277 1220 36 826 36 c 0
869 371 m 0
 561 371 327 466 327 851 c 0
 327 1207 522 1341 878 1341 c 0
 880 1341 881 1341 883 1341 c 0
 973 1341 1052 1312 1151 1265 c 1
 1151 1184 l 1
 1061 1222 959 1250 847 1250 c 0
 523 1250 449 1130 449 856 c 0
 449 593 519 464 847 464 c 0
 952 464 1047 487 1147 528 c 1
 1147 446 l 1
 1065 404 974 371 869 371 c 0
EndSplineSet
Validated: 1
EndChar

StartChar: currency
Encoding: 164 164 147
Width: 1064
VWidth: 0
Flags: W
PickledData: "(dp1
S'org.robofab.postScriptHintData'
p2
(dp3
s."
HStem: 567 123<373.512 655.538> 1275 125<385.545 676.581>
VStem: 107 120<835.277 1119.53> 822 118<849.945 1132.04>
LayerCount: 2
Fore
SplineSet
511 690 m 0
 654 690 822 832 822 992 c 0
 822 1147 668 1275 533 1275 c 0
 390 1275 227 1141 227 976 c 0
 227 822 379 690 511 690 c 0
112 442 m 1
 -9 564 l 1
 174 747 l 1
 132 812 107 890 107 967 c 0
 107 1051 135 1135 181 1203 c 1
 -9 1393 l 1
 112 1514 l 1
 302 1325 l 1
 371 1372 455 1400 540 1400 c 0
 617 1400 695 1375 760 1333 c 1
 942 1514 l 1
 1063 1393 l 1
 881 1210 l 1
 921 1147 940 1073 940 999 c 0
 940 915 913 831 866 762 c 1
 1063 564 l 1
 942 442 l 1
 743 641 l 1
 676 593 593 567 509 567 c 0
 435 567 360 587 297 627 c 1
 112 442 l 1
EndSplineSet
Validated: 1
EndChar

StartChar: d
Encoding: 100 100 148
Width: 1209
VWidth: 0
Flags: W
PickledData: "(dp1
S'org.robofab.postScriptHintData'
p2
(dp3
sS'com.typemytype.robofont.layerData'
p4
(dp5
S'b'
(dp6
S'name'
p7
S'd'
sS'lib'
p8
(dp9
sS'unicodes'
p10
(tsS'width'
p11
I1209
sS'contours'
p12
((dp13
S'points'
p14
((dp15
S'segmentType'
p16
S'curve'
p17
sS'x'
F286
sS'smooth'
p18
I01
sS'y'
F587
s(dp19
S'y'
F381
sS'x'
F286
sg18
I00
s(dp20
S'y'
F117
sS'x'
F328
sg18
I00
s(dp21
g16
S'curve'
p22
sS'x'
F584
sg18
I01
sS'y'
F117
s(dp23
S'y'
F117
sS'x'
F706
sg18
I00
s(dp24
S'y'
F181
sS'x'
F848
sg18
I00
s(dp25
g16
S'curve'
p26
sS'x'
F931
sg18
I00
sS'y'
F275
s(dp27
g16
S'line'
p28
sS'x'
F931
sg18
I00
sS'y'
F903
s(dp29
S'y'
F980
sS'x'
F830
sg18
I00
s(dp30
S'y'
F1047
sS'x'
F708
sg18
I00
s(dp31
g16
S'curve'
p32
sS'x'
F578
sg18
I01
sS'y'
F1047
s(dp33
S'y'
F1047
sS'x'
F328
sg18
I00
s(dp34
S'y'
F787
sS'x'
F286
sg18
I00
stp35
s(dp36
g14
((dp37
g16
S'curve'
p38
sS'x'
F104
sg18
I01
sS'y'
F584
s(dp39
S'y'
F870
sS'x'
F104
sg18
I00
s(dp40
S'y'
F1190
sS'x'
F234
sg18
I00
s(dp41
g16
S'curve'
p42
sS'x'
F566
sg18
I01
sS'y'
F1190
s(dp43
S'y'
F1190
sS'x'
F693
sg18
I00
s(dp44
S'y'
F1129
sS'x'
F850
sg18
I00
s(dp45
g16
S'curve'
p46
sS'x'
F931
sg18
I00
sS'y'
F1028
s(dp47
g16
S'line'
p48
sS'x'
F931
sg18
I00
sS'y'
F1614
s(dp49
g16
S'line'
p50
sS'x'
F1121
sg18
I00
sS'y'
F1579
s(dp51
g16
S'line'
p52
sS'x'
F1121
sg18
I00
sS'y'
F0
s(dp53
g16
S'line'
p54
sS'x'
F980
sg18
I00
sS'y'
F0
s(dp55
g16
S'line'
p56
sS'x'
F952
sg18
I00
sS'y'
F179
s(dp57
S'y'
F71
sS'x'
F869
sg18
I00
s(dp58
S'y'
F-20
sS'x'
F728
sg18
I00
s(dp59
g16
S'curve'
p60
sS'x'
F588
sg18
I01
sS'y'
F-20
s(dp61
S'y'
F-20
sS'x'
F238
sg18
I00
s(dp62
S'y'
F275
sS'x'
F104
sg18
I00
stp63
stp64
sS'components'
p65
(tsS'anchors'
p66
(tsss."
HStem: -19 86<395.077 738.862> 0 21G<993.785 1078> 1093 94<389.293 763.726>
VStem: 119 92<291.892 852.659> 974 104<222.805 958.059 1018 1580> 994 84<0 186>
LayerCount: 2
Fore
SplineSet
547 67 m 0xb8
 683 67 869 150 974 264 c 1
 974 928 l 1
 862 1008 717 1093 558 1093 c 0
 243 1093 211 760 211 588 c 0
 211 406 226 67 547 67 c 0xb8
119 563 m 0
 119 827 216 1187 579 1187 c 0
 703 1187 889 1120 974 1018 c 1
 974 1580 l 1xb8
 1078 1601 l 1
 1078 0 l 1
 994 0 l 1x74
 992 186 l 1
 902 79 741 -19 599 -19 c 0
 262 -19 119 260 119 563 c 0
EndSplineSet
Validated: 1
EndChar

StartChar: dagger
Encoding: 8224 8224 149
Width: 1046
VWidth: 0
Flags: W
PickledData: "(dp1
S'org.robofab.postScriptHintData'
p2
(dp3
s."
HStem: 0 21G<480 574> 1044 73<183 478 577 862>
VStem: 480 94<0 1044 1117 1375>
LayerCount: 2
Fore
SplineSet
480 0 m 1
 480 1044 l 1
 183 1044 l 1
 183 1117 l 1
 478 1117 l 1
 478 1375 l 1
 577 1375 l 1
 577 1117 l 1
 862 1117 l 1
 862 1044 l 1
 574 1044 l 1
 574 0 l 1
 480 0 l 1
EndSplineSet
Validated: 1
EndChar

StartChar: daggerdbl
Encoding: 8225 8225 150
Width: 1057
VWidth: 0
Flags: W
PickledData: "(dp1
S'org.robofab.postScriptHintData'
p2
(dp3
s."
HStem: 0 21G<483 579> 269 70<188 483 579 864> 1044 73<188 483 582 867>
VStem: 483 96<0 269 339 1044 1117 1375>
LayerCount: 2
Fore
SplineSet
483 0 m 1
 483 269 l 1
 188 269 l 1
 188 339 l 1
 483 339 l 1
 483 1044 l 1
 188 1044 l 1
 188 1117 l 1
 483 1117 l 1
 483 1375 l 1
 582 1375 l 1
 582 1117 l 1
 867 1117 l 1
 867 1044 l 1
 579 1044 l 1
 579 339 l 1
 864 339 l 1
 864 269 l 1
 579 269 l 1
 579 0 l 1
 483 0 l 1
EndSplineSet
Validated: 1
EndChar

StartChar: dcroat
Encoding: 273 273 152
Width: 1216
VWidth: 0
Flags: W
PickledData: "(dp1
S'org.robofab.postScriptHintData'
p2
(dp3
s."
HStem: -17 84<426.342 761.848> 0 21G<1015.78 1101> 1093 94<410.951 786.354> 1330 101<534 997 1101 1216>
VStem: 132 92<303.105 852.659> 997 104<222.805 958.059 1018 1330 1431 1547> 1016 85<0 186>
LayerCount: 2
Fore
SplineSet
573 67 m 0xbc
 710 67 891 150 997 264 c 1
 997 928 l 1
 884 1008 739 1093 581 1093 c 0
 266 1093 224 760 224 588 c 0
 224 406 252 67 573 67 c 0xbc
624 -17 m 0
 293 -17 132 258 132 563 c 0
 132 827 238 1187 602 1187 c 0
 726 1187 912 1120 997 1018 c 1
 997 1330 l 1
 534 1330 l 1
 534 1431 l 1
 997 1431 l 1
 997 1633 l 1
 1101 1547 l 1
 1101 1431 l 1
 1216 1431 l 1
 1216 1330 l 1
 1101 1330 l 1xbc
 1101 0 l 1
 1016 0 l 1x7a
 1014 186 l 1
 905 80 768 -17 624 -17 c 0
EndSplineSet
Validated: 1
EndChar

StartChar: degree
Encoding: 176 176 153
Width: 428
VWidth: 0
Flags: W
PickledData: "(dp1
S'org.robofab.postScriptHintData'
p2
(dp3
s."
HStem: 649 51<154.339 298.55> 969 52<151.145 299.473>
VStem: 49 50<755.96 913.254> 346 49<750.996 917.963>
LayerCount: 2
Fore
SplineSet
234 649 m 0
 124 649 49 719 49 832 c 0
 49 943 115 1021 228 1021 c 0
 334 1021 395 939 395 837 c 0
 395 735 343 649 234 649 c 0
226 700 m 0
 302 700 346 762 346 835 c 0
 346 906 303 969 226 969 c 0
 150 969 99 906 99 835 c 0
 99 765 154 700 226 700 c 0
EndSplineSet
Validated: 1
EndChar

StartChar: dieresis
Encoding: 168 168 154
Width: 592
VWidth: 0
Flags: W
PickledData: "(dp1
S'org.robofab.postScriptHintData'
p2
(dp3
s."
HStem: -98 146<46.9565 166.402 440.938 559.903>
VStem: 41 130<-93.0862 43.1984> 435 129<-93.5349 43.1984>
LayerCount: 2
Fore
SplineSet
503 -98 m 0
 465 -98 435 -65 435 -25 c 0
 435 12 465 48 503 48 c 0
 545 48 564 12 564 -25 c 0
 564 -61 545 -98 503 -98 c 0
110 -98 m 0
 71 -98 41 -65 41 -25 c 0
 41 12 71 48 110 48 c 0
 152 48 171 12 171 -25 c 0
 171 -61 151 -98 110 -98 c 0
EndSplineSet
Validated: 1
EndChar

StartChar: divide
Encoding: 247 247 155
Width: 474
VWidth: 0
Flags: W
PickledData: "(dp1
S'org.robofab.postScriptHintData'
p2
(dp3
s."
HStem: 270 146<145.845 269.051> 462 61<-37 473> 566 145<149.46 273.896>
VStem: 139 135<275.482 410.392 573.764 702.609>
LayerCount: 2
Fore
SplineSet
214 566 m 0
 175 566 143 601 143 639 c 0
 143 675 176 711 214 711 c 0
 255 711 279 676 279 639 c 0
 279 602 254 566 214 566 c 0
-37 462 m 1
 -37 523 l 1
 473 523 l 1
 473 462 l 1
 -37 462 l 1
209 270 m 0
 170 270 139 305 139 343 c 0
 139 379 171 416 209 416 c 0
 251 416 274 380 274 343 c 0
 274 306 250 270 209 270 c 0
EndSplineSet
Validated: 1
EndChar

StartChar: dollar
Encoding: 36 36 156
Width: 828
VWidth: 0
Flags: W
PickledData: "(dp1
S'org.robofab.postScriptHintData'
p2
(dp3
s."
HStem: -9 80<200.48 390 490 647.784> 508 94<218.146 389.114> 982 66<238.64 390 490 667.188>
VStem: 49 73<696.509 909.744> 390 100<-195 -5.60498 71 486 602 981 1045 1217> 736 73<158.76 377.532>
LayerCount: 2
Fore
SplineSet
490 71 m 1
 496 71 501 71 507 71 c 0
 624 71 736 139 736 271 c 0
 736 423 589 449 490 486 c 1
 490 71 l 1
390 602 m 1
 390 982 l 1
 385 982 380 982 375 982 c 0
 254 982 122 956 122 792 c 0
 122 647 303 603 390 602 c 1
390 -195 m 1
 390 -11 l 1
 315 -1 255 5 121 44 c 1
 161 123 l 1
 316 66 307 89 390 70 c 1
 390 513 l 1
 371 517 359 519 350 519 c 0
 327 519 332 508 316 508 c 0
 309 508 297 510 276 517 c 1
 160 548 49 601 49 801 c 0
 49 973 259 1038 390 1048 c 1
 390 1217 l 1
 490 1217 l 1
 490 1045 l 1
 491 1045 493 1045 495 1045 c 0
 539 1045 716 1003 758 999 c 1
 727 941 l 1
 648 979 565 977 490 981 c 1
 490 569 l 1
 541 551 508 565 558 545 c 0
 685 493 809 437 809 262 c 0
 809 69 649 6 490 -9 c 1
 490 -195 l 1
 390 -195 l 1
758 999 m 1
 761 1004 l 1
 765 1002 767 1000 767 999 c 0
 767 998 766 998 763 998 c 0
 762 998 760 999 758 999 c 1
EndSplineSet
Validated: 5
EndChar

StartChar: dotaccent
Encoding: 729 729 157
Width: 394
VWidth: 0
Flags: W
PickledData: "(dp1
S'org.robofab.postScriptHintData'
p2
(dp3
s."
HStem: -722 146<134.938 253.903>
VStem: 129 129<-717.535 -580.802>
LayerCount: 2
Fore
SplineSet
197 -722 m 0
 159 -722 129 -689 129 -649 c 0
 129 -612 159 -576 197 -576 c 0
 239 -576 258 -612 258 -649 c 0
 258 -685 239 -722 197 -722 c 0
EndSplineSet
Validated: 1
EndChar

StartChar: dotlessi
Encoding: 305 305 158
Width: 260
VWidth: 0
Flags: W
PickledData: "(dp1
S'org.robofab.postScriptHintData'
p2
(dp3
s."
HStem: 0 21G<86 178> 1154 20G<86 178>
VStem: 86 92<0 1174>
LayerCount: 2
Fore
SplineSet
86 0 m 1
 86 1174 l 1
 178 1174 l 1
 178 0 l 1
 86 0 l 1
EndSplineSet
Validated: 1
EndChar

StartChar: e
Encoding: 101 101 159
Width: 1188
VWidth: 0
Flags: W
PickledData: "(dp1
S'org.robofab.postScriptHintData'
p2
(dp3
sS'com.typemytype.robofont.layerData'
p4
(dp5
S'b'
(dp6
S'name'
p7
S'e'
sS'lib'
p8
(dp9
sS'unicodes'
p10
(tsS'width'
p11
I1188
sS'contours'
p12
(tsS'components'
p13
(tsS'anchors'
p14
(tsss."
HStem: -12 81<467.381 862.873> 589 82<228 981> 1102 82<462.764 805.417>
VStem: 118 98<340.661 589 671 809.375> 981 97<671.18 908.643>
LayerCount: 2
Fore
SplineSet
228 671 m 1
 981 671 l 1
 981 707 l 2
 981 709 981 710 981 712 c 0
 981 893 883 1102 646 1102 c 0
 371 1102 254 891 228 671 c 1
654 -12 m 0
 292 -12 118 280 118 595 c 0
 118 885 301 1184 641 1184 c 0
 943 1184 1078 951 1078 687 c 0
 1078 629 1066 589 1066 589 c 1
 216 589 l 1
 216 320 338 69 658 69 c 0
 770 69 920 115 1006 187 c 1
 1041 124 l 1
 944 35 769 -12 654 -12 c 0
EndSplineSet
Validated: 1
EndChar

StartChar: eight
Encoding: 56 56 166
Width: 1122
VWidth: 0
Flags: W
PickledData: "(dp1
S'org.robofab.postScriptHintData'
p2
(dp3
s."
HStem: -159 72<363.699 775.601> 610 47<449.932 686.98> 1269 71<365.729 766.228>
VStem: 95 106<844.028 1142.69> 110 101<40.7354 413.396> 911 101<29.0856 416.807 822.725 1159.55>
LayerCount: 2
Fore
SplineSet
570 657 m 0xf4
 742 657 921 807 921 987 c 0
 921 1204 747 1269 570 1269 c 0
 396 1269 201 1212 201 990 c 0
 201 805 396 657 570 657 c 0xf4
570 -87 m 0
 795 -87 911 -14 911 229 c 0
 911 420 778 610 570 610 c 0
 359 610 211 432 211 232 c 0xec
 211 -14 347 -87 570 -87 c 0
570 -159 m 0
 341 -159 110 -57 110 209 c 0xec
 110 397 149 572 357 649 c 1
 199 711 95 812 95 985 c 0xf4
 95 1253 366 1340 570 1340 c 0
 775 1340 1026 1248 1026 982 c 0
 1026 807 921 711 765 646 c 1
 971 568 1012 395 1012 207 c 0
 1012 -57 800 -159 570 -159 c 0
EndSplineSet
Validated: 1
EndChar

StartChar: emdash
Encoding: 8212 8212 168
Width: 726
VWidth: 0
Flags: W
PickledData: "(dp1
S'org.robofab.postScriptHintData'
p2
(dp3
s."
HStem: 545 81<105 626>
VStem: 105 521<545 626>
LayerCount: 2
Fore
SplineSet
105 545 m 1
 105 626 l 1
 626 626 l 1
 626 545 l 1
 105 545 l 1
EndSplineSet
Validated: 1
EndChar

StartChar: endash
Encoding: 8211 8211 169
Width: 552
VWidth: 0
Flags: W
PickledData: "(dp1
S'org.robofab.postScriptHintData'
p2
(dp3
s."
HStem: 545 81<105 453>
VStem: 105 348<545 626>
LayerCount: 2
Fore
SplineSet
105 545 m 1
 105 626 l 1
 453 626 l 1
 453 545 l 1
 105 545 l 1
EndSplineSet
Validated: 1
EndChar

StartChar: equal
Encoding: 61 61 171
Width: 646
VWidth: 0
Flags: W
PickledData: "(dp1
S'org.robofab.postScriptHintData'
p2
(dp3
s."
HStem: 286 76<148 517> 435 76<148 517>
VStem: 148 369<286 362 435 511>
LayerCount: 2
Fore
SplineSet
148 435 m 1
 148 511 l 1
 517 511 l 1
 517 435 l 1
 148 435 l 1
148 286 m 1
 148 362 l 1
 517 362 l 1
 517 286 l 1
 148 286 l 1
EndSplineSet
Validated: 1
EndChar

StartChar: eth
Encoding: 240 240 172
Width: 1061
VWidth: 0
Flags: W
PickledData: "(dp1
S'org.robofab.postScriptHintData'
p2
(dp3
s."
HStem: -22 93<286.427 652.722> 1098 94<302.482 681.077> 1337 21G<398.517 484.212>
VStem: 10 92<303.26 857.428> 885 95<348.43 979.021>
LayerCount: 2
Fore
SplineSet
452 71 m 0
 855 71 885 424 885 725 c 0
 885 1037 796 1098 508 1098 c 0
 171 1098 102 857 102 588 c 0
 102 375 143 71 452 71 c 0
482 -22 m 0
 141 -22 10 282 10 576 c 0
 10 831 119 1192 480 1192 c 0
 600 1192 788 1124 875 1018 c 1
 816 1180 734 1300 648 1403 c 1
 413 1337 l 1
 371 1395 l 1
 601 1460 l 1
 527 1538 442 1613 344 1676 c 1
 393 1738 l 1
 514 1676 557 1626 699 1486 c 1
 981 1566 l 1
 1023 1508 l 1
 740 1427 l 1
 915 1181 980 963 980 732 c 0
 980 406 939 -22 482 -22 c 0
EndSplineSet
Validated: 1
EndChar

StartChar: exclam
Encoding: 33 33 173
Width: 296
VWidth: 0
Flags: W
PickledData: "(dp1
S'org.robofab.postScriptHintData'
p2
(dp3
s."
VStem: -94 437
LayerCount: 2
Fore
SplineSet
343 364 m 1
 238 75 l 1
 255 26 277 -18 301 -18 c 0
 307 -18 309 -18 309 -19 c 0
 309 -23 249 -36 191 -55 c 1
 136 -207 l 1
 120 -83 l 1
 97 -95 81 -108 81 -122 c 0
 81 -128 81 -130 80 -130 c 0
 73 -130 33 84 -20 84 c 0
 -26 84 -28 84 -28 85 c 0
 -28 89 34 103 94 123 c 1
 -94 1605 l 1
 231 2176 l 1
 343 364 l 1
EndSplineSet
Validated: 1
EndChar

StartChar: exclamdown
Encoding: 161 161 174
Width: 205
VWidth: 0
Flags: W
PickledData: "(dp1
S'org.robofab.postScriptHintData'
p2
(dp3
s."
HStem: 1 21G<91.0492 129.935>
VStem: 33 154<940.458 1242> 92 37<1 302.542>
LayerCount: 2
Fore
SplineSet
-106 1522 m 0x80
 -53 1522 -14 1737 -7 1737 c 0
 -6 1737 -6 1734 -6 1728 c 0
 -6 1675 223 1633 223 1625 c 0
 223 1624 220 1624 215 1624 c 0
 162 1624 121 1410 114 1410 c 0
 113 1410 113 1412 113 1418 c 0
 113 1470 -114 1513 -114 1521 c 0
 -114 1522 -112 1522 -106 1522 c 0x80
92 1 m 1xa0
 33 1242 l 1
 187 1242 l 1xc0
 129 1 l 1
 92 1 l 1xa0
EndSplineSet
Validated: 1
EndChar

StartChar: f
Encoding: 102 102 175
Width: 722
VWidth: 0
Flags: W
PickledData: "(dp1
S'org.robofab.postScriptHintData'
p2
(dp3
sS'com.typemytype.robofont.layerData'
p4
(dp5
S'b'
(dp6
S'name'
p7
S'f'
sS'lib'
p8
(dp9
sS'unicodes'
p10
(tsS'width'
p11
I722
sS'contours'
p12
(tsS'components'
p13
(tsS'anchors'
p14
(tsss."
HStem: 0 21G<236 340> 1096 76<38 236 340 724> 1577 80<405.226 639.388>
VStem: 236 104<0 1096 1172 1507.5>
LayerCount: 2
Fore
SplineSet
236 0 m 1
 236 1096 l 1
 38 1096 l 1
 38 1172 l 1
 236 1172 l 1
 236 1420 252 1657 526 1657 c 0
 609 1657 716 1596 775 1532 c 1
 692 1499 l 1
 645 1546 567 1577 506 1577 c 1
 355 1577 339 1418 339 1276 c 0
 339 1239 340 1204 340 1172 c 1
 724 1172 l 1
 724 1096 l 1
 340 1096 l 1
 340 0 l 1
 236 0 l 1
EndSplineSet
Validated: 1
EndChar

StartChar: ff
Encoding: 65537 -1 176
Width: 1356
VWidth: 0
Flags: W
PickledData: "(dp1
S'org.robofab.postScriptHintData'
p2
(dp3
s."
HStem: 0 21G<236 340 870 974> 1096 76<38 236 340 870 974 1358> 1577 80<380.112 617.002 1014.11 1251.22>
VStem: 235 87<1175.01 1522.03> 236 104<0 1096 1172 1387.57> 869 87<1175.01 1522.03> 870 104<0 1096 1172 1387.57>
LayerCount: 2
Fore
SplineSet
236 0 m 1xea
 236 1096 l 1
 38 1096 l 1
 38 1172 l 1
 236 1172 l 1xea
 236 1205 235 1239 235 1273 c 0
 235 1462 256 1657 526 1657 c 0
 609 1657 716 1596 775 1532 c 1
 678 1476 l 1
 638 1526 581 1577 520 1577 c 0
 356 1577 322 1492 322 1391 c 0xf0
 322 1318 340 1236 340 1172 c 1
 870 1172 l 1xea
 870 1205 869 1239 869 1273 c 0
 869 1462 890 1657 1160 1657 c 0
 1244 1657 1350 1596 1409 1532 c 1
 1312 1476 l 1
 1272 1526 1215 1577 1154 1577 c 0
 990 1577 956 1492 956 1391 c 0xe4
 956 1318 974 1236 974 1172 c 1
 1358 1172 l 1
 1358 1096 l 1
 974 1096 l 1
 974 0 l 1
 870 0 l 1
 870 1096 l 1
 340 1096 l 1
 340 0 l 1
 236 0 l 1xea
EndSplineSet
Validated: 1
EndChar

StartChar: ffi
Encoding: 65538 -1 177
Width: 1787
VWidth: 0
Flags: W
PickledData: "(dp1
S'org.robofab.postScriptHintData'
p2
(dp3
s."
HStem: 0 21G<236 340 893 997 1552 1643> 1096 76<38 236 340 893 997 1552> 1352 145<1540.94 1659.9> 1577 80<380.112 617.002 1037.11 1273.79>
VStem: 235 87<1175.01 1522.03> 236 104<0 1096 1172 1387.57> 892 87<1175.01 1522.03> 893 104<0 1096 1172 1387.57> 1535 129<1356.79 1492.2> 1552 91<0 1096>
LayerCount: 2
Fore
SplineSet
1603 1352 m 0xf080
 1565 1352 1535 1385 1535 1424 c 0
 1535 1461 1565 1497 1603 1497 c 0
 1645 1497 1664 1461 1664 1424 c 0
 1664 1388 1645 1352 1603 1352 c 0xf080
236 0 m 1xf540
 236 1096 l 1
 38 1096 l 1
 38 1172 l 1
 236 1172 l 1xf540
 236 1205 235 1239 235 1273 c 0
 235 1462 256 1657 526 1657 c 0
 609 1657 716 1596 775 1532 c 1
 678 1476 l 1
 638 1526 581 1577 520 1577 c 0
 356 1577 322 1492 322 1391 c 0xf8
 322 1318 340 1236 340 1172 c 1
 893 1172 l 1xf5
 893 1205 892 1239 892 1273 c 0
 892 1462 913 1657 1183 1657 c 0
 1266 1657 1373 1596 1432 1532 c 1
 1335 1476 l 1
 1294 1526 1238 1577 1177 1577 c 0
 1013 1577 979 1492 979 1391 c 0xf2
 979 1318 997 1236 997 1172 c 1
 1643 1172 l 1
 1643 0 l 1
 1552 0 l 1
 1552 1096 l 1
 997 1096 l 1
 997 0 l 1
 893 0 l 1
 893 1096 l 1
 340 1096 l 1
 340 0 l 1
 236 0 l 1xf540
EndSplineSet
Validated: 1
EndChar

StartChar: five
Encoding: 53 53 178
Width: 891
VWidth: 0
Flags: W
PickledData: "(dp1
S'org.robofab.postScriptHintData'
p2
(dp3
s."
HStem: -220 88<179.595 606.682> 592 83<228.398 594.933> 1068 101<131 776>
VStem: 59 72<581 1068> 762 104<22.3624 426.109>
LayerCount: 2
Fore
SplineSet
381 -220 m 0
 234 -220 152 -177 20 -127 c 1
 76 -39 l 1
 173 -97 304 -132 395 -132 c 0
 628 -132 762 -25 762 225 c 0
 762 444 649 592 413 592 c 0
 299 592 167 527 88 491 c 1
 59 531 l 1
 59 1169 l 1
 776 1169 l 1
 776 1068 l 1
 131 1068 l 1
 131 581 l 1
 209 666 357 675 423 675 c 0
 682 675 866 495 866 232 c 0
 866 -76 661 -220 381 -220 c 0
EndSplineSet
Validated: 1
EndChar

StartChar: fj
Encoding: 65539 -1 179
Width: 1090
VWidth: 0
Flags: W
PickledData: "(dp1
S'org.robofab.postScriptHintData'
p2
(dp3
s."
HStem: -386 50<672.559 692.849> 0 21G<236 340> 1096 76<38 236 340 840> 1352 145<827.286 951.051> 1597 70<411.426 611.939>
VStem: 236 104<0 1096 1172 1507.06> 821 135<1356.96 1491.39> 840 104<-167.404 1096>
LayerCount: 2
Fore
SplineSet
891 1352 m 0xfe
 853 1352 821 1384 821 1424 c 0
 821 1460 853 1497 891 1497 c 0
 932 1497 956 1461 956 1424 c 0
 956 1388 932 1352 891 1352 c 0xfe
676 -386 m 1
 664 -336 l 1
 827 -227 841 -97 841 55 c 0
 841 86 840 118 840 151 c 2
 840 1096 l 1
 340 1096 l 1
 340 0 l 1
 236 0 l 1
 236 1096 l 1
 38 1096 l 1
 38 1172 l 1
 236 1172 l 1
 236 1494 298 1667 509 1667 c 0
 576 1667 667 1631 787 1549 c 1
 704 1501 l 1
 615 1569 555 1597 520 1597 c 0
 347 1597 340 1456 340 1231 c 0
 340 1212 340 1192 340 1172 c 1
 944 1172 l 1
 944 128 l 2xfd
 944 -58 912 -327 676 -386 c 1
EndSplineSet
Validated: 1
EndChar

StartChar: florin
Encoding: 402 402 180
Width: 694
VWidth: 0
Flags: W
PickledData: "(dp1
S'org.robofab.postScriptHintData'
p2
(dp3
s."
HStem: -255 102<-240.937 19.8434> 1050 76<9 198 310 686> 1577 80<394.78 629.873>
LayerCount: 2
Fore
SplineSet
-188 -255 m 0
 -257 -255 -338 -201 -377 -145 c 1
 -275 -90 l 1
 -198 -134 -146 -153 -114 -153 c 0
 71 -153 69 -36 96 212 c 1
 198 1050 l 1
 1 1050 l 1
 9 1126 l 1
 206 1126 l 1
 231 1362 234 1657 552 1657 c 0
 636 1657 736 1596 788 1532 c 1
 685 1476 l 1
 650 1526 599 1577 538 1577 c 1
 322 1577 313 1414 313 1261 c 0
 313 1247 313 1233 313 1220 c 0
 313 1187 313 1155 310 1126 c 1
 694 1126 l 1
 686 1050 l 1
 303 1050 l 1
 209 323 l 2
 167 -9 173 -255 -188 -255 c 0
EndSplineSet
Validated: 1
EndChar

StartChar: four
Encoding: 52 52 181
Width: 1238
VWidth: 0
Flags: W
PickledData: "(dp1
S'org.robofab.postScriptHintData'
p2
(dp3
s."
HStem: 73 73<230 832 940 1130>
VStem: 832 108<-283 73 148 1036>
LayerCount: 2
Fore
SplineSet
230 146 m 1
 832 146 l 1
 832 1036 l 1
 230 146 l 1
832 -283 m 1
 832 73 l 1
 145 73 l 1
 124 176 l 1
 827 1203 l 1
 940 1179 l 1
 940 148 l 1
 1130 148 l 1
 1130 73 l 1
 940 73 l 1
 940 -283 l 1
 832 -283 l 1
EndSplineSet
Validated: 1
EndChar

StartChar: fraction
Encoding: 8260 8260 182
Width: 1486
VWidth: 0
Flags: W
PickledData: "(dp1
S'org.robofab.postScriptHintData'
p2
(dp3
s."
LayerCount: 2
Fore
SplineSet
89 -110 m 1
 53 -14 l 1
 1343 1203 l 1
 1379 1108 l 1
 89 -110 l 1
EndSplineSet
Validated: 1
EndChar

StartChar: g
Encoding: 103 103 183
Width: 1177
VWidth: 0
Flags: W
PickledData: "(dp1
S'org.robofab.postScriptHintData'
p2
(dp3
sS'com.typemytype.robofont.layerData'
p4
(dp5
S'b'
(dp6
S'name'
p7
S'g'
sS'lib'
p8
(dp9
sS'unicodes'
p10
(tsS'width'
p11
I1177
sS'contours'
p12
((dp13
S'points'
p14
((dp15
S'segmentType'
p16
S'curve'
p17
sS'x'
F544
sS'smooth'
p18
I01
sS'y'
F551
s(dp19
S'y'
F551
sS'x'
F420
sg18
I00
s(dp20
S'y'
F651
sS'x'
F315
sg18
I00
s(dp21
g16
S'curve'
p22
sS'x'
F315
sg18
I01
sS'y'
F808
s(dp23
S'y'
F966
sS'x'
F315
sg18
I00
s(dp24
S'y'
F1059
sS'x'
F418
sg18
I00
s(dp25
g16
S'curve'
p26
sS'x'
F544
sg18
I01
sS'y'
F1059
s(dp27
S'y'
F1059
sS'x'
F671
sg18
I00
s(dp28
S'y'
F966
sS'x'
F773
sg18
I00
s(dp29
g16
S'curve'
p30
sS'x'
F773
sg18
I01
sS'y'
F808
s(dp31
S'y'
F651
sS'x'
F773
sg18
I00
s(dp32
S'y'
F551
sS'x'
F668
sg18
I00
stp33
s(dp34
g14
((dp35
g16
S'curve'
p36
sS'x'
F98
sg18
I01
sS'y'
F-119
s(dp37
S'y'
F-306
sS'x'
F98
sg18
I00
s(dp38
S'y'
F-410
sS'x'
F280
sg18
I00
s(dp39
g16
S'curve'
p40
sS'x'
F544
sg18
I01
sS'y'
F-410
s(dp41
S'y'
F-410
sS'x'
F879
sg18
I00
s(dp42
S'y'
F-237
sS'x'
F1090
sg18
I00
s(dp43
g16
S'curve'
p44
sS'x'
F1090
sg18
I01
sS'y'
F-37
s(dp45
S'y'
F143
sS'x'
F1090
sg18
I00
s(dp46
S'y'
F220
sS'x'
F963
sg18
I00
s(dp47
g16
S'curve'
p48
sS'x'
F713
sg18
I01
sS'y'
F220
s(dp49
g16
S'line'
p50
sS'x'
F504
sg18
I01
sS'y'
F220
s(dp51
S'y'
F220
sS'x'
F358
sg18
I00
s(dp52
S'y'
F269
sS'x'
F313
sg18
I00
s(dp53
g16
S'curve'
p54
sS'x'
F313
sg18
I01
sS'y'
F338
s(dp55
S'y'
F398
sS'x'
F313
sg18
I00
s(dp56
S'y'
F433
sS'x'
F344
sg18
I00
s(dp57
g16
S'curve'
p58
sS'x'
F382
sg18
I00
sS'y'
F467
s(dp59
S'y'
F442
sS'x'
F431
sg18
I00
s(dp60
S'y'
F429
sS'x'
F491
sg18
I00
s(dp61
g16
S'curve'
p62
sS'x'
F544
sg18
I01
sS'y'
F429
s(dp63
S'y'
F429
sS'x'
F764
sg18
I00
s(dp64
S'y'
F573
sS'x'
F939
sg18
I00
s(dp65
g16
S'curve'
p66
sS'x'
F939
sg18
I01
sS'y'
F804
s(dp67
S'y'
F895
sS'x'
F939
sg18
I00
s(dp68
S'y'
F977
sS'x'
F901
sg18
I00
s(dp69
g16
S'curve'
p70
sS'x'
F850
sg18
I00
sS'y'
F1026
s(dp71
g16
S'line'
p72
sS'x'
F1072
sg18
I00
sS'y'
F1026
s(dp73
g16
S'line'
p74
sS'x'
F1072
sg18
I00
sS'y'
F1166
s(dp75
g16
S'line'
p76
sS'x'
F697
sg18
I00
sS'y'
F1166
s(dp77
S'y'
F1181
sS'x'
F657
sg18
I00
s(dp78
S'y'
F1192
sS'x'
F604
sg18
I00
s(dp79
g16
S'curve'
p80
sS'x'
F544
sg18
I01
sS'y'
F1192
s(dp81
S'y'
F1192
sS'x'
F324
sg18
I00
s(dp82
S'y'
F1044
sS'x'
F138
sg18
I00
s(dp83
g16
S'curve'
p84
sS'x'
F138
sg18
I01
sS'y'
F808
s(dp85
S'y'
F680
sS'x'
F138
sg18
I00
s(dp86
S'y'
F575
sS'x'
F207
sg18
I00
s(dp87
g16
S'curve'
p88
sS'x'
F278
sg18
I00
sS'y'
F518
s(dp89
g16
S'line'
p90
sS'x'
F278
sg18
I00
sS'y'
F509
s(dp91
S'y'
F471
sS'x'
F222
sg18
I00
s(dp92
S'y'
F400
sS'x'
F160
sg18
I00
s(dp93
g16
S'curve'
p94
sS'x'
F160
sg18
I01
sS'y'
F309
s(dp95
S'y'
F225
sS'x'
F160
sg18
I00
s(dp96
S'y'
F167
sS'x'
F202
sg18
I00
s(dp97
g16
S'curve'
p98
sS'x'
F256
sg18
I00
sS'y'
F134
s(dp99
g16
S'line'
p100
sS'x'
F256
sg18
I00
sS'y'
F125
s(dp101
S'y'
F58
sS'x'
F158
sg18
I00
s(dp102
S'y'
F-28
sS'x'
F98
sg18
I00
stp103
s(dp104
g14
((dp105
g16
S'curve'
p106
sS'x'
F258
sg18
I01
sS'y'
F-95
s(dp107
S'y'
F-33
sS'x'
F258
sg18
I00
s(dp108
S'y'
F32
sS'x'
F291
sg18
I00
s(dp109
g16
S'curve'
p110
sS'x'
F369
sg18
I00
sS'y'
F87
s(dp111
S'y'
F74
sS'x'
F415
sg18
I00
s(dp112
S'y'
F69
sS'x'
F466
sg18
I00
s(dp113
g16
S'curve'
p114
sS'x'
F509
sg18
I01
sS'y'
F69
s(dp115
g16
S'line'
p116
sS'x'
F695
sg18
I01
sS'y'
F69
s(dp117
S'y'
F69
sS'x'
F835
sg18
I00
s(dp118
S'y'
F36
sS'x'
F912
sg18
I00
s(dp119
g16
S'curve'
p120
sS'x'
F912
sg18
I01
sS'y'
F-64
s(dp121
S'y'
F-177
sS'x'
F912
sg18
I00
s(dp122
S'y'
F-283
sS'x'
F777
sg18
I00
s(dp123
g16
S'curve'
p124
sS'x'
F571
sg18
I01
sS'y'
F-283
s(dp125
S'y'
F-283
sS'x'
F375
sg18
I00
s(dp126
S'y'
F-210
sS'x'
F258
sg18
I00
stp127
stp128
sS'components'
p129
(tsS'anchors'
p130
(tsss."
HStem: -339 74<314.678 831.095> 132 81<353.702 883.725> 451 77<395.121 725.158> 1055 102<870.898 1106> 1102 82<395.901 760.92>
VStem: 150 108<-217.965 34.4929 647.563 989.705> 171 95<216.298 460.748> 883 92<669.68 973.318> 960 94<-177.732 62.2543>
LayerCount: 2
Fore
SplineSet
526 -265 m 0xe480
 772 -265 960 -234 960 -66 c 0
 960 125 791 132 701 132 c 0
 694 132 688 132 682 132 c 0
 649 132 447 132 415 132 c 1
 336 103 258 -9 258 -85 c 0
 258 -234 330 -265 526 -265 c 0xe480
975 804 m 0xf3
 975 579 777 451 554 451 c 0
 414 451 327 497 317 511 c 1
 307 491 266 401 266 338 c 0xf3
 266 260 314 213 314 213 c 1
 648 213 l 2
 860 213 1054 209 1054 -54 c 0
 1054 -276 851 -339 532 -339 c 0
 330 -339 150 -324 150 -85 c 0xf480
 150 30 221 117 314 154 c 1
 259 166 190 183 174 282 c 0
 172 295 171 308 171 322 c 0
 171 390 200 462 282 535 c 1
 277 546 144 628 144 816 c 0
 144 1014 280 1184 582 1184 c 0xea
 675 1184 762 1165 835 1101 c 1
 919 1149 1011 1156 1106 1157 c 1
 1106 1055 l 1
 867 1055 l 1
 921 1019 975 904 975 804 c 0xf3
556 528 m 0
 804 528 883 709 883 802 c 0
 883 960 811 1102 600 1102 c 0xe9
 356 1102 247 978 247 823 c 0
 247 663 356 528 556 528 c 0
EndSplineSet
Validated: 1
EndChar

StartChar: germandbls
Encoding: 223 223 187
Width: 1163
VWidth: 0
Flags: W
PickledData: "(dp1
S'org.robofab.postScriptHintData'
p2
(dp3
sS'com.typemytype.robofont.layerData'
p4
(dp5
S'b'
(dp6
S'name'
p7
S'germandbls'
p8
sS'lib'
p9
(dp10
sS'unicodes'
p11
(tsS'width'
p12
I1163
sS'contours'
p13
(tsS'components'
p14
(tsS'anchors'
p15
(tsss."
HStem: -93 89<402 766.26> -9 21G<95.9633 154.235> 821 79<337 672.336> 1491 88<306.975 718.705>
VStem: 96 99<25 1373.04> 837 91<1042.47 1385.32> 1039 83<230.511 630.997>
LayerCount: 2
Fore
SplineSet
443 900 m 0xbe
 650 900 837 944 837 1235 c 0
 837 1477 623 1491 481 1491 c 0
 215 1491 194 1311 194 1132 c 0
 194 1100 195 1069 195 1038 c 2
 195 25 l 1
 96 -9 l 1x7e
 94 1081 l 2
 94 1387 165 1579 481 1579 c 0
 489 1579 497 1579 505 1579 c 0
 667 1579 928 1552 928 1186 c 0
 928 1025 867 872 729 857 c 1
 739 858 749 858 759 858 c 0
 984 858 1122 666 1122 416 c 0
 1122 -43 698 -93 401 -93 c 1
 402 -4 l 1
 442 -6 485 -8 528 -8 c 0
 774 -8 1039 55 1039 468 c 0
 1039 796 676 821 444 821 c 0
 403 821 367 820 337 820 c 1
 337 820 337 844 337 869 c 0
 337 881 337 894 337 904 c 1
 364 903 404 900 443 900 c 0xbe
EndSplineSet
Validated: 1
EndChar

StartChar: grave
Encoding: 96 96 188
Width: 199
VWidth: 0
Flags: W
PickledData: "(dp1
S'org.robofab.postScriptHintData'
p2
(dp3
s."
HStem: -192 449
VStem: -10 447
LayerCount: 2
Fore
SplineSet
434 -192 m 1
 -10 180 l 1
 70 257 l 1
 437 -192 l 1
 434 -192 l 1
EndSplineSet
Validated: 1
EndChar

StartChar: guillemotleft
Encoding: 171 171 189
Width: 966
VWidth: 0
Flags: W
PickledData: "(dp1
S'org.robofab.postScriptHintData'
p2
(dp3
s."
LayerCount: 2
Fore
SplineSet
975 179 m 1
 473 496 l 1
 473 650 l 1
 975 968 l 1
 975 831 l 1
 557 576 l 1
 975 317 l 1
 975 179 l 1
472 179 m 1
 -29 496 l 1
 -29 650 l 1
 472 968 l 1
 472 831 l 1
 56 576 l 1
 472 317 l 1
 472 179 l 1
EndSplineSet
Validated: 1
EndChar

StartChar: guillemotright
Encoding: 187 187 190
Width: 954
VWidth: 0
Flags: W
PickledData: "(dp1
S'org.robofab.postScriptHintData'
p2
(dp3
s."
LayerCount: 2
Fore
SplineSet
501 179 m 1
 501 317 l 1
 930 576 l 1
 501 831 l 1
 501 968 l 1
 1004 650 l 1
 1004 496 l 1
 501 179 l 1
0 179 m 1
 0 317 l 1
 428 576 l 1
 0 831 l 1
 0 968 l 1
 503 650 l 1
 503 496 l 1
 0 179 l 1
EndSplineSet
Validated: 1
EndChar

StartChar: guilsinglleft
Encoding: 8249 8249 191
Width: 245
VWidth: 0
Flags: W
PickledData: "(dp1
S'org.robofab.postScriptHintData'
p2
(dp3
s."
VStem: -98 483
LayerCount: 2
Fore
SplineSet
385 172 m 1
 -98 484 l 1
 -98 641 l 1
 385 955 l 1
 385 798 l 1
 -9 568 l 1
 385 329 l 1
 385 172 l 1
EndSplineSet
Validated: 1
EndChar

StartChar: guilsinglright
Encoding: 8250 8250 192
Width: 278
VWidth: 0
Flags: W
PickledData: "(dp1
S'org.robofab.postScriptHintData'
p2
(dp3
s."
VStem: -121 483
LayerCount: 2
Fore
SplineSet
-121 172 m 1
 -121 329 l 1
 276 568 l 1
 -121 798 l 1
 -121 955 l 1
 362 641 l 1
 362 484 l 1
 -121 172 l 1
EndSplineSet
Validated: 1
EndChar

StartChar: h
Encoding: 104 104 193
Width: 1169
VWidth: 0
Flags: W
PickledData: "(dp1
S'org.robofab.postScriptHintData'
p2
(dp3
sS'com.typemytype.robofont.layerData'
p4
(dp5
S'b'
(dp6
S'name'
p7
S'h'
sS'lib'
p8
(dp9
sS'unicodes'
p10
(tsS'width'
p11
I1169
sS'contours'
p12
(tsS'components'
p13
(tsS'anchors'
p14
(tsss."
HStem: 0 21G<126 230 945 1049> 1093 94<482.833 850.659>
VStem: 126 104<0 927.356 986 1580> 945 104<0 988.611>
LayerCount: 2
Fore
SplineSet
126 0 m 1
 126 1580 l 1
 230 1604 l 1
 230 986 l 1
 360 1091 476 1187 655 1187 c 0
 999 1187 1049 990 1049 729 c 2
 1049 0 l 1
 945 0 l 1
 945 716 l 2
 945 894 942 1093 692 1093 c 0
 576 1093 362 1030 230 890 c 1
 230 0 l 1
 126 0 l 1
EndSplineSet
Validated: 1
EndChar

StartChar: hbar
Encoding: 295 295 194
Width: 1168
VWidth: 0
Flags: W
PickledData: "(dp1
S'org.robofab.postScriptHintData'
p2
(dp3
s."
HStem: 0 21G<115 220 949 1054> 1093 94<472.207 842.218> 1389 93<1 115 220 623>
VStem: 115 105<0 927.356 986 1389 1482 1580> 949 105<0 977.934>
LayerCount: 2
Fore
SplineSet
115 0 m 1
 115 1389 l 1
 1 1389 l 1
 1 1482 l 1
 115 1482 l 1
 115 1580 l 1
 220 1604 l 1
 220 1482 l 1
 623 1482 l 1
 623 1389 l 1
 220 1389 l 1
 220 986 l 1
 350 1091 465 1187 644 1187 c 0
 988 1187 1054 990 1054 729 c 2
 1054 0 l 1
 949 0 l 1
 949 716 l 2
 949 894 931 1093 681 1093 c 0
 565 1093 352 1030 220 890 c 1
 220 0 l 1
 115 0 l 1
EndSplineSet
Validated: 1
EndChar

StartChar: hungarumlaut
Encoding: 733 733 196
Width: 710
VWidth: 0
Flags: W
PickledData: "(dp1
S'org.robofab.postScriptHintData'
p2
(dp3
s."
HStem: -192 449
LayerCount: 2
Fore
SplineSet
215 -192 m 1
 196 -192 l 1
 542 257 l 1
 638 180 l 1
 215 -192 l 1
-55 -192 m 1
 -80 -192 l 1
 309 257 l 1
 410 180 l 1
 -55 -192 l 1
EndSplineSet
Validated: 1
EndChar

StartChar: hyphen
Encoding: 45 45 197
Width: 817
VWidth: 0
Flags: W
PickledData: "(dp1
S'org.robofab.postScriptHintData'
p2
(dp3
s."
HStem: 473 100<105 718>
VStem: 105 613<473 573>
LayerCount: 2
Fore
SplineSet
105 473 m 1
 105 573 l 1
 718 573 l 1
 718 473 l 1
 105 473 l 1
EndSplineSet
Validated: 1
EndChar

StartChar: i
Encoding: 105 105 198
Width: 389
VWidth: 0
Flags: W
PickledData: "(dp1
S'org.robofab.postScriptHintData'
p2
(dp3
s."
HStem: 0 21G<154 245> 1152 20G<154 245> 1352 145<142.938 261.903>
VStem: 137 129<1356.79 1492.2> 154 91<0 1172>
LayerCount: 2
Fore
SplineSet
205 1352 m 0xf0
 167 1352 137 1385 137 1424 c 0
 137 1461 167 1497 205 1497 c 0
 247 1497 266 1461 266 1424 c 0
 266 1388 247 1352 205 1352 c 0xf0
154 0 m 1xe8
 154 1172 l 1
 245 1172 l 1
 245 0 l 1
 154 0 l 1xe8
EndSplineSet
Validated: 1
EndChar

StartChar: integral
Encoding: 8747 8747 205
Width: 1295
VWidth: 0
Flags: W
PickledData: "(dp1
S'org.robofab.postScriptHintData'
p2
(dp3
s."
HStem: -538 81<218.127 454.897> 1577 80<843.15 1079.87>
LayerCount: 2
Fore
SplineSet
296 -538 m 0
 212 -538 112 -476 60 -412 c 1
 163 -357 l 1
 198 -406 249 -457 310 -457 c 0
 514 -457 531 -324 531 -193 c 0
 531 -166 531 -139 531 -113 c 0
 531 -92 531 -71 533 -52 c 2
 661 1172 l 1
 682 1385 684 1657 1002 1657 c 0
 1086 1657 1186 1596 1238 1532 c 1
 1135 1476 l 1
 1100 1526 1049 1577 988 1577 c 0
 785 1577 766 1445 766 1315 c 0
 766 1286 767 1258 767 1231 c 0
 767 1210 767 1190 765 1172 c 2
 637 -52 l 2
 615 -265 614 -538 296 -538 c 0
EndSplineSet
Validated: 1
EndChar

StartChar: j
Encoding: 106 106 208
Width: 448
VWidth: 0
Flags: W
PickledData: "(dp1
S'org.robofab.postScriptHintData'
p2
(dp3
sS'com.typemytype.robofont.layerData'
p4
(dp5
S'b'
(dp6
S'name'
p7
S'j'
sS'lib'
p8
(dp9
sS'unicodes'
p10
(tsS'width'
p11
I448
sS'contours'
p12
(tsS'components'
p13
(tsS'anchors'
p14
(tsss."
HStem: -371 51<35.3457 55.0254> 1152 20G<203 307> 1352 145<189.46 313.896>
VStem: 183 136<1357.62 1490.66> 203 104<-152.404 1172>
LayerCount: 2
Fore
SplineSet
254 1352 m 0xf0
 216 1352 183 1384 183 1424 c 0
 183 1460 216 1497 254 1497 c 0
 295 1497 319 1461 319 1424 c 0
 319 1388 294 1352 254 1352 c 0xf0
39 -371 m 1
 26 -320 l 1
 190 -212 204 -81 204 71 c 0
 204 102 203 133 203 166 c 2
 203 1172 l 1
 307 1172 l 1
 307 143 l 2xe8
 307 -43 274 -312 39 -371 c 1
EndSplineSet
Validated: 1
EndChar

StartChar: k
Encoding: 107 107 210
Width: 982
VWidth: 0
Flags: W
PickledData: "(dp1
S'org.robofab.postScriptHintData'
p2
(dp3
sS'com.typemytype.robofont.layerData'
p4
(dp5
S'b'
(dp6
S'name'
p7
S'k'
sS'lib'
p8
(dp9
sS'unicodes'
p10
(tsS'width'
p11
I982
sS'contours'
p12
(tsS'components'
p13
(tsS'anchors'
p14
(tsss."
HStem: 0 21G<123 227 874.958 1011> 1152 20G<795.261 954>
VStem: 123 104<0 496 604 1580>
LayerCount: 2
Fore
SplineSet
123 0 m 1
 123 1580 l 1
 227 1601 l 1
 227 604 l 1
 816 1172 l 1
 954 1172 l 1
 432 654 l 1
 1011 0 l 1
 893 0 l 1
 340 613 l 1
 227 496 l 1
 227 0 l 1
 123 0 l 1
EndSplineSet
Validated: 1
EndChar

StartChar: kgreenlandic
Encoding: 312 312 212
Width: 1162
VWidth: 0
Flags: W
PickledData: "(dp1
S'org.robofab.postScriptHintData'
p2
(dp3
s."
HStem: 0 21G<119 222 890.212 1032> 1154 20G<830.425 981>
VStem: 119 103<0 493 590 1804>
LayerCount: 2
Fore
SplineSet
119 0 m 1
 119 1804 l 1
 222 1857 l 1
 222 590 l 1
 852 1174 l 1
 981 1174 l 1
 406 650 l 1
 1032 0 l 1
 909 0 l 1
 351 594 l 1
 222 493 l 1
 222 0 l 1
 119 0 l 1
EndSplineSet
Validated: 1
EndChar

StartChar: l
Encoding: 108 108 213
Width: 353
VWidth: 0
Flags: W
PickledData: "(dp1
S'org.robofab.postScriptHintData'
p2
(dp3
sS'com.typemytype.robofont.layerData'
p4
(dp5
S'b'
(dp6
S'name'
p7
S'l'
sS'lib'
p8
(dp9
sS'unicodes'
p10
(tsS'width'
p11
I353
sS'contours'
p12
(tsS'components'
p13
(tsS'anchors'
p14
(tsss."
HStem: 0 21G<139 243>
VStem: 139 104<0 1580>
LayerCount: 2
Fore
SplineSet
139 0 m 1
 139 1580 l 1
 243 1601 l 1
 243 0 l 1
 139 0 l 1
EndSplineSet
Validated: 1
EndChar

StartChar: logicalnot
Encoding: 172 172 218
Width: 1625
VWidth: 0
Flags: W
PickledData: "(dp1
S'org.robofab.postScriptHintData'
p2
(dp3
s."
HStem: 1258 92<-32 1346>
VStem: 1346 168<399 1258>
LayerCount: 2
Fore
SplineSet
1346 399 m 1
 1346 1258 l 1
 -32 1258 l 1
 -32 1350 l 1
 1514 1350 l 1
 1514 399 l 1
 1346 399 l 1
EndSplineSet
Validated: 1
EndChar

StartChar: m
Encoding: 109 109 219
Width: 1901
VWidth: 0
Flags: W
PickledData: "(dp1
S'org.robofab.postScriptHintData'
p2
(dp3
sS'com.typemytype.robofont.layerData'
p4
(dp5
S'b'
(dp6
S'name'
p7
S'm'
sS'lib'
p8
(dp9
sS'unicodes'
p10
(tsS'width'
p11
I1901
sS'contours'
p12
(tsS'components'
p13
(tsS'anchors'
p14
(tsss."
HStem: 0 21G<129 233 882 986 1677 1780> 1094 93<453.841 795.326 1249.4 1589.23> 1152 20G<129 218>
VStem: 129 104<0 938.195> 129 83<982 1172> 882 104<0 898.957> 1677 103<0 986.25>
LayerCount: 2
Fore
SplineSet
129 0 m 1xd6
 129 1172 l 1
 218 1172 l 1
 212 982 l 1xae
 302 1106 454 1187 639 1187 c 0
 790 1187 934 1091 972 938 c 1
 1054 1078 1240 1187 1427 1187 c 0
 1681 1187 1780 968 1780 772 c 2
 1780 0 l 1
 1677 0 l 1
 1677 760 l 2
 1677 918 1663 1094 1442 1094 c 0
 1256 1094 1093 970 986 856 c 1
 986 0 l 1
 882 0 l 1
 882 755 l 2
 882 911 871 1094 649 1094 c 0
 491 1094 335 997 233 903 c 1
 233 0 l 1
 129 0 l 1xd6
EndSplineSet
Validated: 1
EndChar

StartChar: macron
Encoding: 175 175 220
Width: 931
VWidth: 0
Flags: W
PickledData: "(dp1
S'org.robofab.postScriptHintData'
p2
(dp3
s."
HStem: 85 112<318 1000>
LayerCount: 2
Fore
SplineSet
318 85 m 1
 318 197 l 1
 1000 197 l 1
 1000 85 l 1
 318 85 l 1
EndSplineSet
Validated: 1
EndChar

StartChar: minus
Encoding: 8722 8722 221
Width: 724
VWidth: 0
Flags: W
PickledData: "(dp1
S'org.robofab.postScriptHintData'
p2
(dp3
s."
HStem: 508 131<9 691>
LayerCount: 2
Fore
SplineSet
9 508 m 1
 9 639 l 1
 691 639 l 1
 691 508 l 1
 9 508 l 1
EndSplineSet
Validated: 1
EndChar

StartChar: mu
Encoding: 956 956 222
Width: 1161
VWidth: 0
Flags: W
PickledData: "(dp1
S'org.robofab.postScriptHintData'
p2
(dp3
s."
HStem: -23 95<341.598 686.501> 1153 20G<114 194 908 1039>
VStem: 114 80<-185 165 211.525 1173> 908 131<221.105 1173> 947 92<24 171>
LayerCount: 2
Fore
SplineSet
194 -185 m 1xe8
 114 -218 l 1
 114 1173 l 1
 194 1173 l 1
 194 530 l 1
 192 501 192 473 192 446 c 0
 192 231 248 72 479 72 c 0
 610 72 815 148 908 262 c 1
 908 1173 l 1
 1039 1173 l 1xf0
 1039 24 l 1
 947 24 l 1
 952 171 l 1
 805 36 644 -23 493 -23 c 0
 366 -23 286 47 194 165 c 1
 194 -185 l 1xe8
EndSplineSet
Validated: 1
EndChar

StartChar: multiply
Encoding: 215 215 223
Width: 678
VWidth: 0
Flags: W
PickledData: "(dp1
S'org.robofab.postScriptHintData'
p2
(dp3
s."
LayerCount: 2
Fore
SplineSet
-15 145 m 1
 -75 195 l 1
 264 542 l 1
 -75 890 l 1
 -15 940 l 1
 316 600 l 1
 647 940 l 1
 707 890 l 1
 368 542 l 1
 707 195 l 1
 647 145 l 1
 316 485 l 1
 -15 145 l 1
EndSplineSet
Validated: 1
EndChar

StartChar: n
Encoding: 110 110 224
Width: 1227
VWidth: 0
Flags: W
PickledData: "(dp1
S'org.robofab.postScriptHintData'
p2
(dp3
sS'com.typemytype.robofont.guides'
p4
(tsS'com.typemytype.robofont.layerData'
p5
(dp6
S'b'
(dp7
S'name'
p8
S'n'
sS'lib'
p9
(dp10
sS'unicodes'
p11
(tsS'width'
p12
I1227
sS'contours'
p13
(tsS'components'
p14
(tsS'anchors'
p15
(tsss."
HStem: 0 21G<145 249 988 1092> 1093 91<492.206 872.225>
VStem: 145 104<0 934.671> 145 73<1027.99 1172> 988 104<0 962.625>
LayerCount: 2
Fore
SplineSet
145 0 m 1xe8
 145 1172 l 1
 218 1172 l 1xd8
 240 951 l 1
 393 1129 560 1184 727 1184 c 0
 1052 1184 1092 920 1092 725 c 2
 1092 0 l 1
 988 0 l 1
 988 716 l 2
 988 871 963 1093 727 1093 c 0
 607 1093 398 1052 249 893 c 1
 249 0 l 1
 145 0 l 1xe8
EndSplineSet
Validated: 1
EndChar

StartChar: nine
Encoding: 57 57 228
Width: 1219
VWidth: 0
Flags: W
PickledData: "(dp1
S'org.robofab.postScriptHintData'
p2
(dp3
s."
HStem: -103 81<406.752 510.538> 429 80<392.575 749.732> 1303 79<439.525 783.856>
VStem: 114 102<694.39 1083.9> 995 98<703.025 1067.62>
LayerCount: 2
Fore
SplineSet
551 509 m 0
 672 509 926 588 991 702 c 1
 994 724 995 737 995 747 c 0
 995 765 992 775 992 815 c 0
 993 1061 907 1303 609 1303 c 0
 375 1303 216 1113 216 899 c 0
 216 703 322 509 551 509 c 0
411 -103 m 1
 387 -22 l 1
 684 38 962 270 994 627 c 1
 907 485 757 429 594 429 c 0
 316 429 114 594 114 886 c 0
 114 1190 322 1382 621 1382 c 0
 973 1382 1093 1100 1093 787 c 0
 1093 374 905 14 411 -103 c 1
EndSplineSet
Validated: 33
EndChar

StartChar: notequal
Encoding: 8800 8800 229
Width: 672
VWidth: 0
Flags: W
PickledData: "(dp1
S'org.robofab.postScriptHintData'
p2
(dp3
s."
HStem: 286 76<151 260 363 520> 435 76<151 312 414 520>
VStem: 151 369<286 362 435 511>
LayerCount: 2
Fore
SplineSet
296 204 m 1
 236 236 l 1
 260 286 l 1
 151 286 l 1
 151 362 l 1
 286 362 l 1
 312 435 l 1
 151 435 l 1
 151 511 l 1
 340 511 l 1
 375 599 l 1
 433 568 l 1
 414 511 l 1
 520 511 l 1
 520 435 l 1
 388 435 l 1
 363 362 l 1
 520 362 l 1
 520 286 l 1
 336 286 l 1
 296 204 l 1
EndSplineSet
Validated: 1
EndChar

StartChar: numbersign
Encoding: 35 35 231
Width: 942
VWidth: 0
Flags: W
PickledData: "(dp1
S'org.robofab.postScriptHintData'
p2
(dp3
s."
HStem: 632 107<92 261 363 533 635 795> 946 110<135 291 394 562 667 830>
LayerCount: 2
Fore
SplineSet
363 739 m 1
 538 739 l 1
 562 946 l 1
 388 946 l 1
 363 739 l 1
244 453 m 1
 261 632 l 1
 92 632 l 1
 92 739 l 1
 267 739 l 1
 291 946 l 1
 135 946 l 1
 135 1056 l 1
 302 1056 l 1
 318 1254 l 1
 410 1254 l 1
 394 1056 l 1
 574 1056 l 1
 588 1251 l 1
 684 1251 l 1
 667 1056 l 1
 830 1056 l 1
 830 946 l 1
 659 946 l 1
 635 739 l 1
 795 739 l 1
 795 632 l 1
 626 632 l 1
 612 453 l 1
 518 453 l 1
 533 632 l 1
 355 632 l 1
 339 453 l 1
 244 453 l 1
EndSplineSet
Validated: 1
EndChar

StartChar: o
Encoding: 111 111 232
Width: 1264
VWidth: 0
Flags: W
PickledData: "(dp1
S'org.robofab.postScriptHintData'
p2
(dp3
sS'com.typemytype.robofont.guides'
p4
(tsS'com.typemytype.robofont.layerData'
p5
(dp6
S'b'
(dp7
S'name'
p8
S'o'
sS'lib'
p9
(dp10
sS'unicodes'
p11
(tsS'width'
p12
I1264
sS'contours'
p13
(tsS'components'
p14
(tsS'anchors'
p15
(tsss."
HStem: -13 82<441.045 812.655> 1102 82<448.295 814.061>
VStem: 118 98<321.797 841.486> 1048 98<321.919 841.927>
LayerCount: 2
Fore
SplineSet
630 -13 m 0
 275 -13 118 276 118 582 c 0
 118 884 273 1184 630 1184 c 0
 989 1184 1146 886 1146 582 c 0
 1146 274 984 -13 630 -13 c 0
630 69 m 0
 967 69 1048 364 1048 581 c 0
 1048 796 967 1102 632 1102 c 0
 296 1102 216 796 216 581 c 0
 216 314 319 69 630 69 c 0
EndSplineSet
Validated: 1
EndChar

StartChar: oe
Encoding: 339 339 237
Width: 2042
VWidth: 0
Flags: W
PickledData: "(dp1
S'org.robofab.postScriptHintData'
p2
(dp3
s."
HStem: -17 85<440.203 818.299 1341.67 1701.6> 596 89<1152 1842> 1100 87<439.834 815.003 1335.48 1712.1>
VStem: 120 92<321.236 841.488> 1045 95<323.322 596 685 839.697> 1842 112<685 925.997>
LayerCount: 2
Fore
SplineSet
1152 685 m 1
 1842 685 l 1
 1842 732 l 2
 1842 734 1842 737 1842 739 c 0
 1842 918 1771 1109 1535 1109 c 0
 1260 1109 1178 905 1152 685 c 1
629 68 m 0
 966 68 1045 364 1045 581 c 0
 1045 796 965 1100 629 1100 c 0
 293 1100 212 796 212 581 c 0
 212 314 319 68 629 68 c 0
629 -17 m 0
 274 -17 120 276 120 582 c 0
 120 884 272 1187 629 1187 c 0
 862 1187 1014 1074 1097 908 c 1
 1173 1073 1314 1187 1530 1187 c 0
 1832 1187 1954 945 1954 681 c 0
 1954 623 1946 653 1937 596 c 1
 1140 596 l 1
 1140 327 1209 66 1529 66 c 0
 1641 66 1754 123 1840 212 c 1
 1900 115 l 1
 1814 42 1640 -17 1525 -17 c 0
 1302 -17 1164 92 1094 252 c 1
 1011 91 858 -17 629 -17 c 0
EndSplineSet
Validated: 1
EndChar

StartChar: ogonek
Encoding: 731 731 238
Width: 471
VWidth: 0
Flags: W
PickledData: "(dp1
S'org.robofab.postScriptHintData'
p2
(dp3
s."
HStem: -613 84<193.095 489.24> -499 20G<492 516>
VStem: 39 129<-506.073 -299.962>
LayerCount: 2
Fore
SplineSet
317 -613 m 0
 81 -613 39 -541 39 -463 c 0
 39 -248 351 80 361 117 c 1
 472 117 l 2
 473 118 474 118 474 118 c 0
 474 109 168 -234 168 -419 c 0
 168 -477 197 -529 322 -529 c 0
 360 -529 468 -494 516 -479 c 1
 516 -575 l 1
 452 -592 386 -613 317 -613 c 0
EndSplineSet
Validated: 1
EndChar

StartChar: one
Encoding: 49 49 242
Width: 510
VWidth: 0
Flags: W
PickledData: "(dp1
S'org.robofab.postScriptHintData'
p2
(dp3
s."
HStem: 0 21G<347 448>
VStem: 347 101<0 1145>
LayerCount: 2
Fore
SplineSet
347 0 m 1
 347 1145 l 1
 113 1028 l 1
 82 1094 l 1
 333 1219 l 1
 448 1219 l 1
 448 0 l 1
 347 0 l 1
EndSplineSet
Validated: 1
EndChar

StartChar: onehalf
Encoding: 189 189 243
Width: 1396
VWidth: 0
Flags: W
PickledData: "(dp1
S'org.robofab.postScriptHintData'
p2
(dp3
s."
HStem: -316 119<951 1399> 556 109<827.578 1245.41>
VStem: 104 105<652 1567> 1307 122<282.968 500.261>
LayerCount: 2
Fore
SplineSet
-142 -132 m 1
 -209 -31 l 1
 1009 1271 l 1
 1075 1172 l 1
 -142 -132 l 1
104 652 m 1
 104 1567 l 1
 -90 1486 l 1
 -108 1527 l 1
 104 1613 l 1
 209 1594 l 1
 209 652 l 1
 104 652 l 1
787 -316 m 1
 787 -198 l 1
 882 -111 1307 222 1307 401 c 0
 1307 522 1175 556 1083 556 c 0
 981 556 892 543 786 521 c 1
 825 641 l 1
 880 661 935 665 988 665 c 0
 1027 665 1065 663 1101 663 c 0
 1271 663 1429 571 1429 385 c 0
 1428 125 1063 -69 951 -197 c 1
 1399 -197 l 1
 1399 -316 l 1
 787 -316 l 1
EndSplineSet
Validated: 1
EndChar

StartChar: onequarter
Encoding: 188 188 244
Width: 1156
VWidth: 0
Flags: W
PickledData: "(dp1
S'org.robofab.postScriptHintData'
p2
(dp3
s."
HStem: 1 59<501 1002 1094 1252>
VStem: 104 105<652 1567> 1002 92<-282 1 60 760>
LayerCount: 2
Fore
SplineSet
501 60 m 1
 1002 60 l 1
 1002 760 l 1
 807 471 703 344 501 60 c 1
-142 -132 m 1
 -209 -31 l 1
 1009 1271 l 1
 1075 1172 l 1
 -142 -132 l 1
104 652 m 1
 104 1567 l 1
 -90 1486 l 1
 -108 1527 l 1
 104 1613 l 1
 209 1594 l 1
 209 652 l 1
 104 652 l 1
1002 -317 m 1
 1002 1 l 1
 436 1 l 1
 420 83 l 1
 1008 905 l 1
 1094 886 l 1
 1094 60 l 1
 1252 60 l 1
 1252 1 l 1
 1094 1 l 1
 1094 -282 l 1
 1002 -317 l 1
EndSplineSet
Validated: 1
EndChar

StartChar: oslash
Encoding: 248 248 245
Width: 1090
VWidth: 0
Flags: W
PickledData: "(dp1
S'org.robofab.postScriptHintData'
p2
(dp3
s."
HStem: -17 85<397.954 715.605> 1100 87<336.641 657.854>
VStem: 17 92<308.021 841.488> 942 95<321.117 850.953>
LayerCount: 2
Fore
SplineSet
526 68 m 0
 863 68 942 364 942 581 c 0
 942 734 908 952 732 1059 c 1
 396 84 l 1
 439 71 484 68 526 68 c 0
320 108 m 1
 660 1080 l 1
 616 1095 569 1100 526 1100 c 0
 190 1100 109 796 109 581 c 0
 109 408 149 205 320 108 c 1
295 -209 m 1
 217 -182 l 1
 292 35 l 1
 74 150 17 391 17 582 c 0
 17 884 168 1187 526 1187 c 0
 580 1187 637 1180 691 1163 c 1
 762 1366 l 1
 830 1339 l 1
 759 1134 l 1
 976 1013 1037 777 1037 582 c 0
 1037 273 884 -17 526 -17 c 0
 475 -17 421 -11 368 5 c 1
 295 -209 l 1
EndSplineSet
Validated: 1
EndChar

StartChar: p
Encoding: 112 112 247
Width: 1206
VWidth: 0
Flags: W
PickledData: "(dp1
S'org.robofab.postScriptHintData'
p2
(dp3
sS'com.typemytype.robofont.layerData'
p4
(dp5
S'b'
(dp6
S'name'
p7
S'p'
sS'lib'
p8
(dp9
sS'unicodes'
p10
(tsS'width'
p11
I1206
sS'contours'
p12
(tsS'components'
p13
(tsS'anchors'
p14
(tsss."
HStem: -530 21G<129 192.03> -16 85<454.196 790.489> 1091 96<458.832 809.549> 1152 20G<129 215.357>
VStem: 129 104<-497 198 217.164 945.257> 129 85<960.783 1172> 992 93<302.834 855.141>
LayerCount: 2
Fore
SplineSet
622 69 m 0xea
 920 69 992 363 992 549 c 0
 992 751 949 1091 646 1091 c 0
 523 1091 314 996 233 908 c 1
 233 267 l 1
 280 182 498 69 622 69 c 0xea
129 -530 m 1xe6
 129 1172 l 1
 214 1172 l 1xd6
 229 951 l 1
 313 1080 451 1187 596 1187 c 0
 1012 1187 1085 794 1085 593 c 0
 1085 365 1016 -16 616 -16 c 0
 466 -16 319 77 233 198 c 1
 233 -497 l 1xea
 129 -530 l 1xe6
EndSplineSet
Validated: 1
EndChar

StartChar: paragraph
Encoding: 182 182 248
Width: 937
VWidth: 0
Flags: W
PickledData: "(dp1
S'org.robofab.postScriptHintData'
p2
(dp3
s."
HStem: 0 21G<358 511 646 795> 1428 151<511 646>
VStem: -93 604<1152.86 1425.06> 358 153<0 1009> 646 149<0 1428>
LayerCount: 2
Fore
SplineSet
358 0 m 1xd8
 358 1009 l 1xd8
 163 1009 -93 1058 -93 1301 c 0xe8
 -93 1566 191 1579 404 1579 c 2
 795 1579 l 1
 795 0 l 1
 646 0 l 1
 646 1428 l 1
 511 1428 l 1
 511 0 l 1
 358 0 l 1xd8
EndSplineSet
Validated: 1
EndChar

StartChar: parenleft
Encoding: 40 40 249
Width: 274
VWidth: 0
Flags: W
PickledData: "(dp1
S'org.robofab.postScriptHintData'
p2
(dp3
s."
VStem: -65 115<344.029 1039.31>
LayerCount: 2
Fore
SplineSet
287 -151 m 1
 6 12 -65 473 -65 705 c 0
 -65 939 7 1366 271 1550 c 1
 356 1506 l 1
 125 1309 50 941 50 702 c 0
 50 502 107 58 329 -99 c 1
 287 -151 l 1
EndSplineSet
Validated: 1
EndChar

StartChar: parenright
Encoding: 41 41 250
Width: 277
VWidth: 0
Flags: W
PickledData: "(dp1
S'org.robofab.postScriptHintData'
p2
(dp3
s."
VStem: 234 116<363.072 1056.6>
LayerCount: 2
Fore
SplineSet
-4 -151 m 1
 -72 -102 l 1
 155 86 234 463 234 694 c 0
 234 907 179 1329 -44 1503 c 1
 -1 1556 l 1
 274 1376 350 962 350 719 c 0
 350 452 292 47 -4 -151 c 1
EndSplineSet
Validated: 1
EndChar

StartChar: percent
Encoding: 37 37 251
Width: 1398
VWidth: 0
Flags: W
PickledData: "(dp1
S'org.robofab.postScriptHintData'
p2
(dp3
s."
HStem: -32 58<1020.74 1219.73> 660 59<187.678 389.188> 705 52<1027.63 1212.92> 1397 53<190.581 383.634>
VStem: 3 80<829.422 1286.94> 491 74<834.157 1279.75> 835 80<140.841 594.51> 1324 74<143.245 586.384>
LayerCount: 2
Fore
SplineSet
1121 -32 m 0xbf
 941 -32 835 123 835 347 c 0
 835 356 835 365 835 375 c 0
 835 511 845 757 1125 757 c 0
 1336 757 1398 565 1398 335 c 0
 1398 130 1298 -32 1124 -32 c 0
 1123 -32 1122 -32 1121 -32 c 0xbf
1121 26 m 0
 1320 26 1324 259 1324 368 c 0
 1324 466 1317 705 1121 705 c 0
 925 705 915 475 915 368 c 0
 915 365 915 362 915 359 c 0
 915 256 918 26 1121 26 c 0
435 24 m 1
 353 72 l 1
 989 1402 l 1
 1066 1343 l 1
 435 24 l 1
288 660 m 0xdf
 108 660 3 816 3 1039 c 0
 3 1048 3 1057 3 1067 c 0
 3 1203 13 1450 293 1450 c 0
 503 1450 565 1261 565 1028 c 0
 565 815 461 660 288 660 c 0xdf
288 719 m 0
 488 719 491 951 491 1061 c 0
 491 1159 486 1397 288 1397 c 0
 94 1397 83 1168 83 1061 c 0
 83 1059 83 1057 83 1055 c 0
 83 954 85 719 288 719 c 0
EndSplineSet
Validated: 1
EndChar

StartChar: period
Encoding: 46 46 252
Width: 394
VWidth: 0
Flags: W
PickledData: "(dp1
S'org.robofab.postScriptHintData'
p2
(dp3
s."
HStem: -26 145<134.938 253.903>
VStem: 129 129<-21.1984 114.209>
LayerCount: 2
Fore
SplineSet
197 -26 m 0
 159 -26 129 7 129 47 c 0
 129 83 159 119 197 119 c 0
 239 119 258 83 258 47 c 0
 258 10 239 -26 197 -26 c 0
EndSplineSet
Validated: 1
EndChar

StartChar: periodcentered
Encoding: 183 183 253
Width: 199
VWidth: 0
Flags: W
PickledData: "(dp1
S'org.robofab.postScriptHintData'
p2
(dp3
s."
HStem: 480 145<46.9565 166.748>
VStem: 41 130<484.791 620.198>
LayerCount: 2
Fore
SplineSet
110 480 m 0
 71 480 41 513 41 552 c 0
 41 589 71 625 110 625 c 0
 152 625 171 589 171 552 c 0
 171 516 151 480 110 480 c 0
EndSplineSet
Validated: 1
EndChar

StartChar: plus
Encoding: 43 43 254
Width: 973
VWidth: 0
Flags: W
PickledData: "(dp1
S'org.robofab.postScriptHintData'
p2
(dp3
s."
HStem: 554 68<120 452 514 847>
VStem: 452 62<215 554 622 962>
LayerCount: 2
Fore
SplineSet
452 215 m 1
 452 554 l 1
 120 554 l 1
 120 622 l 1
 452 622 l 1
 452 962 l 1
 514 962 l 1
 514 622 l 1
 847 622 l 1
 847 554 l 1
 514 554 l 1
 514 215 l 1
 452 215 l 1
EndSplineSet
Validated: 1
EndChar

StartChar: plusminus
Encoding: 177 177 255
Width: 701
VWidth: 0
Flags: W
PickledData: "(dp1
S'org.robofab.postScriptHintData'
p2
(dp3
s."
HStem: -84 89<21 672> 383 71<-18 315 377 710>
VStem: 315 62<44 383 454 795>
LayerCount: 2
Fore
SplineSet
21 -84 m 1
 21 5 l 1
 672 5 l 1
 672 -84 l 1
 21 -84 l 1
315 44 m 1
 315 383 l 1
 -18 383 l 1
 -18 454 l 1
 315 454 l 1
 315 795 l 1
 377 795 l 1
 377 454 l 1
 710 454 l 1
 710 383 l 1
 377 383 l 1
 377 44 l 1
 315 44 l 1
EndSplineSet
Validated: 1
EndChar

StartChar: q
Encoding: 113 113 256
Width: 1208
VWidth: 0
Flags: W
PickledData: "(dp1
S'org.robofab.postScriptHintData'
p2
(dp3
sS'com.typemytype.robofont.layerData'
p4
(dp5
S'b'
(dp6
S'name'
p7
S'q'
sS'lib'
p8
(dp9
sS'unicodes'
p10
(tsS'width'
p11
I1208
sS'contours'
p12
(tsS'components'
p13
(tsS'anchors'
p14
(tsss."
HStem: -17 85<423.159 778.406> 1094 93<390.813 743.455> 1152 20G<1028.09 1084>
VStem: 115 92<322.051 864.187> 980 104<-518 170 200.808 951.881> 1031 53<1073.5 1172>
LayerCount: 2
Fore
SplineSet
589 68 m 0xd8
 722 68 896 150 980 237 c 1
 980 923 l 1
 885 998 682 1094 544 1094 c 0
 258 1094 207 770 207 575 c 0
 207 341 314 68 589 68 c 0xd8
980 -553 m 1
 980 170 l 1
 895 58 738 -17 579 -17 c 0
 243 -17 115 300 115 594 c 0
 115 831 215 1187 565 1187 c 0xd8
 735 1187 912 1065 1000 959 c 1
 1031 1172 l 1
 1084 1172 l 1xb4
 1084 -518 l 1
 980 -553 l 1
EndSplineSet
Validated: 1
EndChar

StartChar: question
Encoding: 63 63 257
Width: 912
VWidth: 0
Flags: W
PickledData: "(dp1
S'org.robofab.postScriptHintData'
p2
(dp3
s."
HStem: -24 113<172.856 285.42> 1491 101<192.464 644.177>
VStem: 169 119<-21.6509 85.2589> 198 104<223 682.366> 754 112<1071.93 1389.05>
LayerCount: 2
Fore
SplineSet
228 -24 m 0xe8
 194 -24 169 10 169 41 c 0
 169 69 209 89 234 89 c 0
 260 89 288 56 288 31 c 0
 288 2 257 -24 228 -24 c 0xe8
198 223 m 1xd8
 198 749 l 1
 395 812 754 943 754 1232 c 0
 754 1456 591 1491 410 1491 c 0
 308 1491 224 1482 87 1397 c 1
 40 1481 l 1
 144 1545 322 1592 424 1592 c 0
 628 1592 866 1529 866 1253 c 0
 866 804 450 739 302 665 c 1
 302 223 l 1
 198 223 l 1xd8
EndSplineSet
Validated: 1
EndChar

StartChar: questiondown
Encoding: 191 191 258
Width: 703
VWidth: 0
Flags: W
PickledData: "(dp1
S'org.robofab.postScriptHintData'
p2
(dp3
s."
HStem: -119 101<187.792 649.403> 1384 113<550.256 663.579>
VStem: -31 113<81.9352 396.686> 533 105<781.811 1250> 548 119<1387.74 1494.72>
LayerCount: 2
Fore
SplineSet
602 1384 m 0xe8
 575 1384 548 1417 548 1442 c 0
 548 1470 579 1497 608 1497 c 0
 642 1497 667 1464 667 1433 c 0
 667 1403 626 1384 602 1384 c 0xe8
412 -119 m 0
 206 -119 -31 -52 -31 230 c 0
 -31 681 384 728 533 798 c 1
 533 1250 l 1
 638 1250 l 1
 638 724 l 1xf0
 435 660 82 524 82 241 c 0
 82 14 243 -18 425 -18 c 0
 526 -18 612 -9 748 76 c 1
 796 -8 l 1
 696 -75 510 -119 412 -119 c 0
EndSplineSet
Validated: 1
EndChar

StartChar: quotedbl
Encoding: 34 34 259
Width: 573
VWidth: 0
Flags: W
PickledData: "(dp1
S'org.robofab.postScriptHintData'
p2
(dp3
s."
HStem: 1194 386<124 203.808 390 464.947>
VStem: 73 162<1231.43 1580> 335 161<1248.94 1580>
LayerCount: 2
Fore
SplineSet
460 1194 m 1
 390 1194 l 1
 336 1487 l 2
 335 1495 335 1502 335 1510 c 0
 335 1533 338 1554 338 1580 c 1
 493 1580 l 1
 493 1554 496 1526 496 1504 c 0
 496 1489 466 1252 460 1194 c 1
460 1194 m 1
 460 1194 l 1
235 1499 m 0
 235 1495 203 1233 199 1194 c 1
 124 1194 l 1
 74 1493 l 2
 73 1500 73 1507 73 1513 c 0
 73 1535 77 1554 77 1580 c 1
 232 1580 l 1
 232 1554 235 1526 235 1506 c 0
 235 1503 235 1501 235 1499 c 0
199 1194 m 1
 199 1194 l 1
EndSplineSet
Validated: 1
EndChar

StartChar: quotedblbase
Encoding: 8222 8222 260
Width: 759
VWidth: 0
Flags: W
PickledData: "(dp1
S'org.robofab.postScriptHintData'
p2
(dp3
s."
HStem: -253 83<156.227 187.891 442.227 473.891> -29 227<118 224 404 510>
VStem: 118 207<-25.6773 198> 224 101<-139.094 -29> 404 207<-25.6773 198> 510 101<-139.094 -29>
LayerCount: 2
Fore
SplineSet
450 -253 m 1xc8
 405 -170 l 1
 467 -150 511 -120 510 -29 c 1xc4
 404 -29 l 1
 404 198 l 1
 611 198 l 1
 611 10 l 2
 611 -98 584 -216 450 -253 c 1xc8
164 -253 m 1
 119 -170 l 1
 181 -150 225 -120 224 -29 c 1xd0
 118 -29 l 1
 118 198 l 1
 325 198 l 1
 325 10 l 2xe0
 325 -98 298 -216 164 -253 c 1
EndSplineSet
Validated: 33
EndChar

StartChar: quotedblleft
Encoding: 8220 8220 261
Width: 741
VWidth: 0
Flags: W
PickledData: "(dp1
S'org.robofab.postScriptHintData'
p2
(dp3
s."
HStem: 1174 228<235 340 521 626> 1542 84<264.515 301.68 550.515 587.68>
VStem: 133 207<1174 1397.94> 133 102<1402 1511.59> 419 207<1174 1397.94> 419 102<1402 1511.59>
LayerCount: 2
Fore
SplineSet
419 1174 m 1xc8
 419 1362 l 2xc8
 419 1471 446 1588 580 1626 c 1
 625 1542 l 1
 562 1523 521 1496 521 1408 c 0
 521 1406 521 1404 521 1402 c 1xc4
 626 1402 l 1
 626 1174 l 1
 419 1174 l 1xc8
133 1174 m 1xe0
 133 1362 l 2xe0
 133 1471 160 1588 294 1626 c 1
 339 1542 l 1
 276 1523 235 1496 235 1408 c 0
 235 1406 235 1404 235 1402 c 1xd0
 340 1402 l 1
 340 1174 l 1
 133 1174 l 1xe0
EndSplineSet
Validated: 1
EndChar

StartChar: quotedblright
Encoding: 8221 8221 262
Width: 832
VWidth: 0
Flags: W
PickledData: "(dp1
S'org.robofab.postScriptHintData'
p2
(dp3
s."
HStem: 1128 83<192.227 228.905 478.227 514.905> 1352 228<154 260 440 546>
VStem: 154 208<1354.8 1580> 260 102<1241.11 1352> 440 208<1354.8 1580> 546 102<1241.11 1352>
LayerCount: 2
Fore
SplineSet
486 1128 m 1xc8
 441 1211 l 1
 503 1231 546 1260 546 1346 c 0
 546 1348 546 1350 546 1352 c 1xc4
 440 1352 l 1
 440 1580 l 1
 648 1580 l 1
 648 1391 l 2
 648 1281 617 1165 486 1128 c 1xc8
200 1128 m 1
 155 1211 l 1
 217 1231 260 1260 260 1346 c 0
 260 1348 260 1350 260 1352 c 1xd0
 154 1352 l 1
 154 1580 l 1
 362 1580 l 1
 362 1391 l 2xe0
 362 1281 331 1165 200 1128 c 1
EndSplineSet
Validated: 1
EndChar

StartChar: quoteleft
Encoding: 8216 8216 263
Width: 443
VWidth: 0
Flags: W
PickledData: "(dp1
S'org.robofab.postScriptHintData'
p2
(dp3
s."
HStem: 1128 227<224 330> 1496 84<254.298 291.68>
VStem: 122 208<1128 1351.94> 122 102<1355 1465.59>
LayerCount: 2
Fore
SplineSet
122 1128 m 1xe0
 122 1316 l 2xe0
 122 1425 149 1542 284 1580 c 1
 329 1496 l 1
 267 1477 224 1448 224 1361 c 0
 224 1359 224 1357 224 1355 c 1xd0
 330 1355 l 1
 330 1128 l 1
 122 1128 l 1xe0
EndSplineSet
Validated: 1
EndChar

StartChar: quoteright
Encoding: 8217 8217 264
Width: 513
VWidth: 0
Flags: W
PickledData: "(dp1
S'org.robofab.postScriptHintData'
p2
(dp3
s."
HStem: 1128 83<192.227 228.905> 1352 228<154 260>
VStem: 154 208<1354.8 1580> 260 102<1241.11 1352>
LayerCount: 2
Fore
SplineSet
200 1128 m 1xe0
 155 1211 l 1
 217 1231 260 1260 260 1346 c 0
 260 1348 260 1350 260 1352 c 1xd0
 154 1352 l 1
 154 1580 l 1
 362 1580 l 1
 362 1391 l 2
 362 1281 331 1165 200 1128 c 1xe0
EndSplineSet
Validated: 1
EndChar

StartChar: quotesinglbase
Encoding: 8218 8218 265
Width: 442
VWidth: 0
Flags: W
PickledData: "(dp1
S'org.robofab.postScriptHintData'
p2
(dp3
s."
HStem: -224 83<149.227 180.891> 0 228<111 217>
VStem: 111 207<3.35464 228> 217 101<-109.744 0>
LayerCount: 2
Fore
SplineSet
157 -224 m 1xe0
 112 -141 l 1
 174 -121 218 -91 217 0 c 1xd0
 111 0 l 1
 111 228 l 1
 318 228 l 1
 318 39 l 2
 318 -69 291 -186 157 -224 c 1xe0
EndSplineSet
Validated: 33
EndChar

StartChar: quotesingle
Encoding: 39 39 266
Width: 172
VWidth: 0
Flags: W
PickledData: "(dp1
S'org.robofab.postScriptHintData'
p2
(dp3
s."
HStem: 1194 386<57 131.808>
VStem: 6 157<1231.29 1580>
LayerCount: 2
Fore
SplineSet
162 1493 m 1
 163 1499 163 1500 163 1500 c 1
 163 1493 131 1233 127 1194 c 1
 57 1194 l 1
 8 1490 l 2
 7 1498 6 1506 6 1514 c 0
 6 1535 10 1555 10 1580 c 1
 160 1580 l 1
 160 1554 163 1527 163 1507 c 0
 163 1502 163 1497 162 1493 c 1
127 1194 m 1
 127 1194 l 1
EndSplineSet
Validated: 5
EndChar

StartChar: r
Encoding: 114 114 267
Width: 708
VWidth: 0
Flags: W
PickledData: "(dp1
S'org.robofab.postScriptHintData'
p2
(dp3
sS'com.typemytype.robofont.layerData'
p4
(dp5
S'b'
(dp6
S'name'
p7
S'r'
sS'lib'
p8
(dp9
sS'unicodes'
p10
(tsS'width'
p11
I708
sS'contours'
p12
(tsS'components'
p13
(tsS'anchors'
p14
(tsss."
HStem: 0 21G<132 236> 1099 90<466.234 613> 1152 20G<132 193.437>
VStem: 132 104<0 980.867> 132 59<1054.33 1172>
LayerCount: 2
Fore
SplineSet
132 0 m 1xd0
 132 1172 l 1
 191 1172 l 1xa8
 215 975 l 1
 308 1056 488 1189 613 1189 c 1
 623 1099 l 1
 532 1099 311 1024 236 944 c 1
 236 0 l 1
 132 0 l 1xd0
EndSplineSet
Validated: 1
EndChar

StartChar: registered
Encoding: 174 174 271
Width: 1162
VWidth: 0
Flags: W
PickledData: "(dp1
S'org.robofab.postScriptHintData'
p2
(dp3
s."
HStem: 649 79<394.38 760.233> 1141 66<508 552> 1385 65<508.016 690.655> 1610 83<386.312 773.633>
VStem: 35 88<981.393 1358.75> 414 93<886 1141 1207 1384.95> 707 89<1228.41 1369.73> 1036 87<980.419 1357.38>
LayerCount: 2
Fore
SplineSet
508 1207 m 1
 556 1207 l 2
 623 1207 707 1216 707 1318 c 0
 707 1376 619 1385 560 1385 c 0
 530 1385 508 1383 508 1383 c 1
 508 1207 l 1
579 649 m 0
 288 649 35 864 35 1171 c 0
 35 1485 304 1693 579 1693 c 0
 869 1693 1123 1475 1123 1171 c 0
 1123 856 860 649 579 649 c 0
578 728 m 0
 821 728 1036 908 1036 1169 c 0
 1036 1430 823 1610 578 1610 c 0
 331 1610 123 1428 123 1168 c 0
 123 906 332 728 578 728 c 0
721 866 m 1
 552 1141 l 1
 507 1141 l 1
 507 886 l 1
 414 886 l 1
 414 1450 l 1
 526 1450 l 1
 528 1450 l 2
 574 1450 796 1449 796 1323 c 0
 796 1202 722 1175 629 1155 c 1
 806 910 l 1
 754 890 770 892 721 866 c 1
EndSplineSet
Validated: 1
EndChar

StartChar: ring
Encoding: 730 730 272
Width: 370
VWidth: 0
Flags: W
PickledData: "(dp1
S'org.robofab.postScriptHintData'
p2
(dp3
s."
HStem: 335 51<117.997 262.267> 654 53<115.256 263.191>
VStem: 13 50<443.548 598.985> 309 50<436.514 603.277>
LayerCount: 2
Fore
SplineSet
198 335 m 0
 88 335 13 404 13 517 c 0
 13 629 78 707 192 707 c 0
 298 707 359 625 359 522 c 0
 359 420 307 335 198 335 c 0
189 386 m 0
 266 386 309 448 309 520 c 0
 309 591 267 654 189 654 c 0
 116 654 63 593 63 520 c 0
 63 451 117 386 189 386 c 0
EndSplineSet
Validated: 1
EndChar

StartChar: s
Encoding: 115 115 273
Width: 912
VWidth: 0
Flags: W
PickledData: "(dp1
S'org.robofab.postScriptHintData'
p2
(dp3
sS'com.typemytype.robofont.layerData'
p4
(dp5
S'b'
(dp6
S'name'
p7
S's'
sS'lib'
p8
(dp9
sS'unicodes'
p10
(tsS'width'
p11
I912
sS'contours'
p12
(tsS'components'
p13
(tsS'anchors'
p14
(tsss."
HStem: -17 86<287.368 647.648> 1105 82<256.954 617.886>
VStem: 81 80<817.285 1021.54> 752 84<166.439 431.97>
LayerCount: 2
Fore
SplineSet
433 -17 m 0
 365 -17 171 43 106 110 c 1
 155 199 l 1
 243 126 347 69 455 69 c 0
 576 69 752 104 752 304 c 0
 752 458 631 517 486 563 c 1
 417 588 452 565 382 590 c 1
 234 638 81 719 81 884 c 0
 81 1116 290 1187 426 1187 c 0
 546 1187 687 1151 769 1066 c 1
 719 985 l 1
 637 1063 572 1105 445 1105 c 0
 350 1105 162 1080 161 909 c 0
 161 807 281 739 418 692 c 0
 484 669 449 692 520 667 c 1
 654 627 836 538 836 308 c 0
 836 75 647 -17 433 -17 c 0
EndSplineSet
Validated: 1
EndChar

StartChar: section
Encoding: 167 167 279
Width: 817
VWidth: 0
Flags: W
PickledData: "(dp1
S'org.robofab.postScriptHintData'
p2
(dp3
s."
HStem: -88 96<204.714 595.141> 935 55<261.005 354> 1469 95<230.952 615.531>
VStem: 63 100<641.105 870.714 1203.23 1405.69> 684 115<88.0373 327.378 637.214 877.817>
LayerCount: 2
Fore
SplineSet
426 574 m 0
 512 574 691 593 691 753 c 0
 691 933 507 935 425 935 c 0
 351 935 163 933 163 755 c 0
 163 591 336 574 426 574 c 0
411 -88 m 0
 338 -88 156 -53 80 8 c 1
 123 104 l 1
 196 39 326 8 399 8 c 0
 499 8 684 35 684 209 c 0
 684 356 539 406 404 447 c 0
 365 458 412 441 372 453 c 1
 272 480 63 536 63 773 c 0
 63 949 240 988 354 990 c 1
 196 1052 63 1102 63 1291 c 0
 63 1527 317 1564 414 1564 c 0
 444 1564 658 1546 742 1468 c 1
 703 1367 l 1
 609 1439 538 1469 423 1469 c 0
 421 1469 419 1469 417 1469 c 0
 353 1469 165 1466 165 1296 c 0
 165 1167 337 1123 480 1079 c 0
 503 1072 797 1014 797 748 c 0
 797 602 651 531 529 531 c 0
 524 531 519 531 514 531 c 1
 668 483 799 417 799 215 c 0
 799 5 605 -88 411 -88 c 0
EndSplineSet
Validated: 1
EndChar

StartChar: semicolon
Encoding: 59 59 280
Width: 420
VWidth: 0
Flags: W
PickledData: "(dp1
S'org.robofab.postScriptHintData'
p2
(dp3
sS'com.typemytype.robofont.layerData'
p4
(dp5
S'b'
(dp6
S'name'
p7
S'semicolon'
p8
sS'lib'
p9
(dp10
sS'unicodes'
p11
(tsS'width'
p12
I420
sS'contours'
p13
(tsS'components'
p14
(tsS'anchors'
p15
(tsss."
HStem: -224 83<130.227 161.913> 0 228<92 197> 501 202<94 302>
VStem: 92 209<3.35464 228 501 703> 197 104<-109.744 0>
LayerCount: 2
Fore
SplineSet
94 501 m 1xe0
 94 703 l 1
 302 703 l 1
 302 501 l 1
 94 501 l 1xe0
138 -224 m 1
 93 -141 l 1
 154 -121 197 -92 197 -6 c 0
 197 -4 197 -2 197 0 c 1xe8
 92 0 l 1
 92 228 l 1
 301 228 l 1
 301 39 l 2xf0
 301 -69 272 -186 138 -224 c 1
EndSplineSet
Validated: 1
EndChar

StartChar: seven
Encoding: 55 55 281
Width: 1108
VWidth: 0
Flags: W
PickledData: "(dp1
S'org.robofab.postScriptHintData'
p2
(dp3
s."
HStem: 1161 100<108 848>
LayerCount: 2
Fore
SplineSet
402 -144 m 1
 303 -98 l 1
 848 1161 l 1
 108 1161 l 1
 108 1261 l 1
 922 1261 l 1
 966 1170 l 1
 402 -144 l 1
EndSplineSet
Validated: 1
EndChar

StartChar: six
Encoding: 54 54 282
Width: 1218
VWidth: 0
Flags: W
PickledData: "(dp1
S'org.robofab.postScriptHintData'
p2
(dp3
s."
HStem: -186 79<410.224 763.157> 676 74<439.114 792.786> 1217 81<687.508 792.071>
VStem: 105 98<111.457 518.166> 983 102<97.7628 485.592>
LayerCount: 2
Fore
SplineSet
586 -107 m 0
 823 -107 983 59 983 282 c 0
 983 495 864 676 634 676 c 0
 527 676 283 606 213 521 c 1
 203 460 203 434 203 371 c 0
 203 368 203 366 203 363 c 0
 203 129 292 -107 586 -107 c 0
585 -186 m 0
 230 -186 105 73 105 408 c 0
 105 831 343 1198 788 1298 c 1
 811 1217 l 1
 502 1151 213 907 179 536 c 1
 286 689 452 750 630 750 c 0
 895 750 1085 593 1085 308 c 0
 1085 4 870 -186 585 -186 c 0
EndSplineSet
Validated: 1
EndChar

StartChar: slash
Encoding: 47 47 283
Width: 626
VWidth: 0
Flags: W
PickledData: "(dp1
S'org.robofab.postScriptHintData'
p2
(dp3
s."
LayerCount: 2
Fore
SplineSet
17 -196 m 1
 -96 -148 l 1
 558 1765 l 1
 667 1718 l 1
 17 -196 l 1
EndSplineSet
Validated: 1
EndChar

StartChar: sterling
Encoding: 163 163 285
Width: 905
VWidth: 0
Flags: W
PickledData: "(dp1
S'org.robofab.postScriptHintData'
p2
(dp3
s."
HStem: 0 60<204 833> 620 78<-17 192 310.838 758> 1244 78<303.47 718.454>
VStem: 76 107<821.511 1119.04> 218 92<228.959 619>
LayerCount: 2
Fore
SplineSet
76 0 m 1
 76 54 l 1
 210 203 218 419 218 565 c 0
 218 584 218 602 218 619 c 1
 -17 620 l 1
 -17 701 l 1
 192 701 l 1
 94 780 76 908 76 956 c 0
 76 1167 276 1322 429 1322 c 0
 441 1322 458 1322 479 1322 c 0
 572 1322 738 1315 868 1235 c 1
 863 1151 l 1
 720 1212 604 1244 497 1244 c 0
 353 1244 183 1207 183 986 c 0
 183 875 241 777 318 698 c 1
 758 698 l 1
 758 620 l 1
 308 620 l 1
 308 593 310 551 310 500 c 0
 310 372 297 188 204 60 c 1
 833 60 l 1
 833 0 l 1
 76 0 l 1
EndSplineSet
Validated: 1
EndChar

StartChar: t
Encoding: 116 116 286
Width: 777
VWidth: 0
Flags: W
PickledData: "(dp1
S'org.robofab.postScriptHintData'
p2
(dp3
sS'com.typemytype.robofont.layerData'
p4
(dp5
S'b'
(dp6
S'name'
p7
S't'
sS'lib'
p8
(dp9
sS'unicodes'
p10
(tsS'width'
p11
I777
sS'contours'
p12
(tsS'components'
p13
(tsS'anchors'
p14
(tsss."
HStem: -13 76<395.686 642.891> 1098 74<56 235 340 680>
VStem: 235 105<112 1098 1172 1307.81> 273 67<1392.51 1532>
LayerCount: 2
Fore
SplineSet
491 -13 m 0xe0
 303 -13 235 134 235 232 c 2
 235 1098 l 1xe0
 56 1098 l 1
 56 1172 l 1
 236 1172 l 1
 273 1532 l 1
 340 1562 l 1xd0
 340 1172 l 1
 680 1172 l 1
 680 1098 l 1
 340 1098 l 1
 340 247 l 2
 340 167 378 63 492 63 c 0
 551 63 611 83 662 110 c 1
 684 30 l 1
 609 0 549 -13 491 -13 c 0xe0
EndSplineSet
Validated: 1
EndChar

StartChar: thorn
Encoding: 254 254 288
Width: 1129
VWidth: 0
Flags: W
PickledData: "(dp1
S'org.robofab.postScriptHintData'
p2
(dp3
s."
HStem: -530 21G<123 182.394> -16 95<404.184 814.204> 1103 93<486.35 814.131>
VStem: 123 133<507.326 939.586> 123 98<-497 127 189.592 475.91 984 1558> 995 90<315.193 862.431>
LayerCount: 2
Fore
SplineSet
658 79 m 0xf4
 902 79 995 326 995 518 c 0
 995 687 983 1103 662 1103 c 0
 543 1103 371 1018 256 903 c 1
 231 213 l 1
 338 126 524 79 658 79 c 0xf4
123 -530 m 1xec
 123 1558 l 1
 220 1558 l 1
 220 984 l 1
 324 1103 470 1196 619 1196 c 0
 969 1196 1085 857 1085 594 c 0
 1085 347 987 -16 626 -16 c 0
 489 -16 320 8 221 127 c 1
 221 -497 l 1
 123 -530 l 1xec
EndSplineSet
Validated: 1
EndChar

StartChar: three
Encoding: 51 51 289
Width: 886
VWidth: 0
Flags: W
PickledData: "(dp1
S'org.robofab.postScriptHintData'
p2
(dp3
s."
HStem: -210 75<210.873 624.92> 543 41<513.328 558.649> 1129 79<163.93 613.139>
VStem: 745 88<712.128 1011.27> 771 102<-8.92198 331.269>
LayerCount: 2
Fore
SplineSet
432 -210 m 1xe8
 321 -209 170 -179 11 -99 c 1
 48 -30 l 1
 193 -108 339 -135 444 -135 c 0
 623 -135 771 -53 771 159 c 0xe8
 771 396 597 467 413 496 c 1
 413 584 l 1
 569 584 745 638 745 851 c 0
 745 1085 575 1129 390 1129 c 0
 291 1129 208 1117 87 1057 c 1
 71 1139 l 1
 197 1192 333 1208 413 1208 c 0
 590 1208 833 1130 833 892 c 0xf0
 833 716 712 543 534 543 c 0
 527 543 520 543 513 544 c 1
 736 499 873 376 873 127 c 0
 873 -108 613 -210 432 -210 c 1xe8
EndSplineSet
Validated: 1
EndChar

StartChar: threequarters
Encoding: 190 190 290
Width: 1561
VWidth: 0
Flags: W
PickledData: "(dp1
S'org.robofab.postScriptHintData'
p2
(dp3
s."
HStem: 1 59<916 1390 1493 1650> 610 93<63.6602 435.165> 1224 48<328.282 380.246> 1669 97<29.6484 438.133>
VStem: 515 103<1358.15 1596.53> 534 116<795.7 1059.71> 1390 103<-282 1 60 728>
LayerCount: 2
Fore
SplineSet
916 60 m 1xf2
 1390 60 l 1
 1390 728 l 1
 1212 431 1121 338 916 60 c 1xf2
259 -122 m 1
 190 -31 l 1
 1394 1271 l 1
 1474 1172 l 1
 259 -122 l 1
1390 -317 m 1
 1390 1 l 1
 835 1 l 1
 819 83 l 1
 1407 905 l 1
 1493 886 l 1
 1493 60 l 1
 1650 60 l 1
 1650 1 l 1
 1493 1 l 1
 1493 -282 l 1
 1390 -317 l 1
275 610 m 1
 175 611 43 639 -69 701 c 1
 -26 788 l 1
 105 721 191 703 284 703 c 0
 392 703 534 778 534 915 c 0xf6
 534 1094 395 1147 259 1170 c 1
 259 1272 l 1
 362 1272 516 1328 515 1474 c 1
 515 1639 363 1669 241 1669 c 0
 158 1669 86 1655 4 1612 c 1
 -19 1709 l 1
 81 1756 196 1766 260 1766 c 0
 406 1766 620 1690 618 1494 c 1xfa
 618 1351 491 1224 347 1224 c 0
 341 1224 334 1224 328 1225 c 1
 515 1191 650 1089 650 885 c 0xf6
 650 692 422 610 275 610 c 1
EndSplineSet
Validated: 33
EndChar

StartChar: tilde
Encoding: 732 732 291
Width: 838
VWidth: 0
Flags: W
PickledData: "(dp1
S'org.robofab.postScriptHintData'
p2
(dp3
s."
HStem: -83 95<446.702 622.661> 19 109<199.071 375.789>
VStem: 63 128<-90 14.9347> 635 122<17.6719 127>
LayerCount: 2
Fore
SplineSet
586 -83 m 0
 415 -83 345 19 250 19 c 0
 196 19 191 -42 191 -74 c 0
 191 -82 191 -87 191 -90 c 1
 63 -90 l 1
 63 2 89 128 249 128 c 1
 410 123 452 12 575 12 c 0
 633 12 635 112 635 127 c 1
 757 127 l 1
 757 49 719 -83 586 -83 c 0
EndSplineSet
Validated: 1
EndChar

StartChar: trademark
Encoding: 8482 8482 292
Width: 1444
VWidth: 0
Flags: W
PickledData: "(dp1
S'org.robofab.postScriptHintData'
p2
(dp3
s."
HStem: 1299 72<85 268 349 533>
VStem: 268 81<698 1299> 647 92<698 1347> 1255 90<698 1347>
LayerCount: 2
Fore
SplineSet
268 698 m 1
 268 1299 l 1
 85 1299 l 1
 85 1371 l 1
 533 1371 l 1
 533 1299 l 1
 349 1299 l 1
 349 698 l 1
 268 698 l 1
647 698 m 1
 647 1371 l 1
 850 1371 l 1
 999 764 l 1
 1143 1371 l 1
 1345 1371 l 1
 1345 698 l 1
 1255 698 l 1
 1255 1347 l 1
 1074 698 l 1
 918 698 l 1
 739 1347 l 1
 739 698 l 1
 647 698 l 1
EndSplineSet
Validated: 1
EndChar

StartChar: two
Encoding: 50 50 293
Width: 990
VWidth: 0
Flags: W
PickledData: "(dp1
S'org.robofab.postScriptHintData'
p2
(dp3
s."
HStem: 0 90<167 883> 1128 77<256.474 652.277>
VStem: 796 71<716.782 1002.86>
LayerCount: 2
Fore
SplineSet
91 0 m 1
 91 108 l 1
 544 474 l 2
 685 589 796 685 796 878 c 0
 796 1073 612 1128 455 1128 c 0
 453 1128 450 1128 448 1128 c 0
 363 1128 317 1109 229 1081 c 1
 197 1132 l 1
 282 1194 337 1205 390 1205 c 0
 418 1205 446 1202 477 1202 c 0
 718 1202 867 1095 867 851 c 0
 867 660 676 473 536 364 c 1
 376 232 286 186 167 90 c 1
 883 90 l 1
 883 0 l 1
 91 0 l 1
EndSplineSet
Validated: 1
EndChar

StartChar: u
Encoding: 117 117 294
Width: 1148
VWidth: 0
Flags: W
PickledData: "(dp1
S'org.robofab.postScriptHintData'
p2
(dp3
sS'com.typemytype.robofont.layerData'
p4
(dp5
S'b'
(dp6
S'name'
p7
S'u'
sS'lib'
p8
(dp9
sS'unicodes'
p10
(tsS'width'
p11
I1148
sS'contours'
p12
(tsS'components'
p13
(tsS'anchors'
p14
(tsss."
HStem: -16 87<341.726 705.003> 0 21G<944.448 1019> 1152 20G<120 224 915 1019>
VStem: 120 104<202.375 1172> 917 102<220.545 1172> 945 74<0 181>
LayerCount: 2
Fore
SplineSet
539 -16 m 1xb4
 204 -16 120 199 120 438 c 2
 120 1172 l 1
 224 1172 l 1
 224 465 l 2
 224 290 246 71 495 71 c 0
 656 71 788 138 917 258 c 1
 915 1172 l 1
 1019 1172 l 1xb8
 1019 0 l 1
 945 0 l 1x74
 940 181 l 1
 867 109 737 -13 539 -16 c 1xb4
EndSplineSet
Validated: 1
EndChar

StartChar: underscore
Encoding: 95 95 302
Width: 1218
VWidth: 0
Flags: W
PickledData: "(dp1
S'org.robofab.postScriptHintData'
p2
(dp3
s."
HStem: -118 81<153 1063>
LayerCount: 2
Fore
SplineSet
153 -118 m 1
 153 -37 l 1
 1063 -37 l 1
 1063 -118 l 1
 153 -118 l 1
EndSplineSet
Validated: 1
EndChar

StartChar: uni00AD
Encoding: 173 173 305
Width: 308
VWidth: 0
Flags: W
PickledData: "(dp1
S'org.robofab.postScriptHintData'
p2
(dp3
s."
HStem: 473 60<21 314>
VStem: 21 293<473 533>
LayerCount: 2
Fore
SplineSet
21 473 m 1
 21 533 l 1
 314 533 l 1
 314 473 l 1
 21 473 l 1
EndSplineSet
Validated: 1
EndChar

StartChar: uni00B2
Encoding: 178 178 306
Width: 564
VWidth: 0
Flags: W
PickledData: "(dp1
S'org.robofab.postScriptHintData'
p2
(dp3
s."
HStem: 693 125<145 591> 1564 115<20.9414 440.403>
VStem: 500 121<1282.74 1507.93>
LayerCount: 2
Fore
SplineSet
-20 693 m 1
 -20 810 l 1
 45 868 51 861 198 990 c 1
 367 1142 500 1298 500 1409 c 0
 500 1531 367 1564 276 1564 c 0
 173 1564 83 1550 -21 1529 c 1
 18 1650 l 1
 81 1673 128 1679 170 1679 c 0
 214 1679 252 1672 294 1672 c 0
 469 1672 621 1576 621 1393 c 0
 621 1178 359 992 215 876 c 0
 161 833 189 855 145 818 c 1
 591 818 l 1
 591 693 l 1
 -20 693 l 1
EndSplineSet
Validated: 1
EndChar

StartChar: uni00B3
Encoding: 179 179 307
Width: 592
VWidth: 0
Flags: W
PickledData: "(dp1
S'org.robofab.postScriptHintData'
p2
(dp3
s."
HStem: 542 92<77.7072 445.71> 1155 49<339 390.802> 1601 96<43.9276 448.243>
VStem: 525 104<1289.8 1526.66> 545 116<727.2 987.844>
LayerCount: 2
Fore
SplineSet
285 542 m 1xe8
 217 543 43 561 -58 632 c 1
 -16 720 l 1
 111 655 203 634 294 634 c 0
 403 634 545 709 545 846 c 0xe8
 545 1025 406 1079 269 1102 c 1
 269 1204 l 1
 374 1204 525 1259 525 1406 c 0
 525 1570 374 1601 252 1601 c 0
 178 1601 108 1591 15 1543 c 1
 -9 1640 l 1
 90 1687 205 1697 270 1697 c 0
 416 1697 629 1623 629 1428 c 0xf0
 629 1285 503 1155 357 1155 c 0
 351 1155 345 1156 339 1156 c 1
 525 1123 661 1020 661 817 c 0
 661 624 432 542 285 542 c 1xe8
EndSplineSet
Validated: 1
EndChar

StartChar: uni00B9
Encoding: 185 185 308
Width: 209
VWidth: 0
Flags: W
PickledData: "(dp1
S'org.robofab.postScriptHintData'
p2
(dp3
s."
HStem: 1313 20G<77.4949 164.5>
VStem: 91 110<358 1244>
LayerCount: 2
Fore
SplineSet
91 358 m 1
 91 1244 l 1
 -105 1162 l 1
 -122 1234 l 1
 128 1333 l 1
 201 1293 l 1
 201 358 l 1
 91 358 l 1
EndSplineSet
Validated: 1
EndChar

StartChar: uni0237
Encoding: 567 567 349
Width: 540
VWidth: 0
Flags: W
PickledData: "(dp1
S'org.robofab.postScriptHintData'
p2
(dp3
s."
HStem: -386 50<156.559 176.849> 1154 20G<324 428>
VStem: 324 104<-167.404 1174>
LayerCount: 2
Fore
SplineSet
160 -386 m 1
 148 -336 l 1
 311 -227 325 -97 325 55 c 0
 325 86 324 118 324 151 c 2
 324 1174 l 1
 428 1174 l 1
 428 128 l 2
 428 -58 396 -327 160 -386 c 1
EndSplineSet
Validated: 1
EndChar

StartChar: uni0307
Encoding: 775 775 350
Width: 394
VWidth: 0
Flags: W
PickledData: "(dp1
S'org.robofab.postScriptHintData'
p2
(dp3
s."
HStem: -722 146<134.938 253.903>
VStem: 129 129<-717.535 -580.802>
LayerCount: 2
Fore
SplineSet
197 -722 m 0
 159 -722 129 -689 129 -649 c 0
 129 -612 159 -576 197 -576 c 0
 239 -576 258 -612 258 -649 c 0
 258 -685 239 -722 197 -722 c 0
EndSplineSet
Validated: 1
EndChar

StartChar: uni030F
Encoding: 783 783 351
Width: 73
VWidth: 0
Flags: W
PickledData: "(dp1
S'org.robofab.postScriptHintData'
p2
(dp3
s."
HStem: -192 610
VStem: 113 629
LayerCount: 2
Fore
SplineSet
717 -192 m 1
 375 356 l 1
 585 418 l 1
 742 -192 l 1
 717 -192 l 1
413 -192 m 1
 113 356 l 1
 319 418 l 1
 433 -192 l 1
 413 -192 l 1
EndSplineSet
Validated: 1
EndChar

StartChar: uni0311
Encoding: 785 785 352
Width: 521
VWidth: 0
Flags: W
PickledData: "(dp1
S'org.robofab.postScriptHintData'
p2
(dp3
s."
HStem: 833 39<185.692 331.256>
VStem: 79 30<685 748.53> 400 30<685 752.117>
LayerCount: 2
Fore
SplineSet
79 685 m 1
 79 689 79 692 79 696 c 0
 79 786 147 872 262 872 c 0
 371 872 430 782 430 697 c 0
 430 693 430 689 430 685 c 1
 400 685 l 1
 401 759 350 833 259 833 c 0
 167 833 108 758 109 685 c 1
 79 685 l 1
EndSplineSet
Validated: 33
EndChar

StartChar: uni0326
Encoding: 806 806 353
Width: 415
VWidth: 0
Flags: W
PickledData: "(dp1
S'org.robofab.postScriptHintData'
p2
(dp3
s."
HStem: -565 83<137.227 168.902> -341 227<99 205>
VStem: 99 208<-337.677 -114> 205 102<-451.094 -341>
LayerCount: 2
Fore
SplineSet
145 -565 m 1xe0
 100 -482 l 1
 163 -462 206 -432 205 -341 c 1xd0
 99 -341 l 1
 99 -114 l 1
 307 -114 l 1
 307 -302 l 2
 307 -410 279 -528 145 -565 c 1xe0
EndSplineSet
Validated: 33
EndChar

StartChar: uni203E
Encoding: 8254 8254 354
Width: 929
VWidth: 0
Flags: W
PickledData: "(dp1
S'org.robofab.postScriptHintData'
p2
(dp3
s."
HStem: 122 117<123 805>
LayerCount: 2
Fore
SplineSet
123 122 m 1
 123 239 l 1
 805 239 l 1
 805 122 l 1
 123 122 l 1
EndSplineSet
Validated: 1
EndChar

StartChar: uni2074
Encoding: 8308 8308 355
Width: 1090
VWidth: 0
Flags: W
PickledData: "(dp1
S'org.robofab.postScriptHintData'
p2
(dp3
s."
HStem: 731 59<213 715 807 964>
VStem: 715 92<450 731 792 1491>
LayerCount: 2
Fore
SplineSet
213 790 m 1
 715 790 l 1
 715 1491 l 1
 520 1203 416 1074 213 790 c 1
715 413 m 1
 715 731 l 1
 149 731 l 1
 133 813 l 1
 721 1635 l 1
 807 1617 l 1
 807 792 l 1
 964 792 l 1
 964 731 l 1
 807 731 l 1
 807 450 l 1
 715 413 l 1
EndSplineSet
Validated: 1
EndChar

StartChar: uniFB01
Encoding: 64257 64257 356
Width: 1099
VWidth: 0
Flags: W
PickledData: "(dp1
S'org.robofab.postScriptHintData'
p2
(dp3
s."
HStem: 0 21G<236 340 863 955> 1096 76<38 236 340 863> 1352 145<852.112 971.748> 1577 80<380.112 617.002>
VStem: 235 87<1175.01 1522.03> 236 104<0 1096 1172 1387.57> 846 130<1357.09 1491.52> 863 92<0 1096>
LayerCount: 2
Fore
SplineSet
915 1352 m 0xf2
 877 1352 846 1385 846 1424 c 0
 846 1461 877 1497 915 1497 c 0
 957 1497 976 1461 976 1424 c 0
 976 1388 956 1352 915 1352 c 0xf2
236 0 m 1xf5
 236 1096 l 1
 38 1096 l 1
 38 1172 l 1
 236 1172 l 1xf5
 236 1205 235 1239 235 1273 c 0
 235 1462 256 1657 526 1657 c 0
 609 1657 716 1596 775 1532 c 1
 678 1476 l 1
 638 1526 581 1577 520 1577 c 0
 356 1577 322 1492 322 1391 c 0xf8
 322 1318 340 1236 340 1172 c 1
 955 1172 l 1
 955 0 l 1
 863 0 l 1
 863 1096 l 1
 340 1096 l 1
 340 0 l 1
 236 0 l 1xf5
EndSplineSet
Validated: 1
EndChar

StartChar: uniFB02
Encoding: 64258 64258 357
Width: 1122
VWidth: 0
Flags: W
PickledData: "(dp1
S'org.robofab.postScriptHintData'
p2
(dp3
s."
HStem: 0 21G<236 340 870 973> 1096 76<38 236 340 724> 1568 80<447.695 867.135>
VStem: 236 104<0 1096 1172 1443.25> 870 103<0 1560.12>
LayerCount: 2
Fore
SplineSet
236 0 m 1
 236 1096 l 1
 38 1096 l 1
 38 1172 l 1
 236 1172 l 1
 236 1535 382 1648 640 1648 c 0
 733 1648 844 1632 973 1601 c 1
 973 0 l 1
 870 0 l 1
 870 1556 l 1
 781 1565 710 1568 653 1568 c 0
 393 1568 340 1488 340 1172 c 1
 724 1172 l 1
 724 1096 l 1
 340 1096 l 1
 340 0 l 1
 236 0 l 1
EndSplineSet
Validated: 1
EndChar

StartChar: v
Encoding: 118 118 361
Width: 1009
VWidth: 0
Flags: W
PickledData: "(dp1
S'org.robofab.postScriptHintData'
p2
(dp3
sS'com.typemytype.robofont.layerData'
p4
(dp5
S'b'
(dp6
S'name'
p7
S'v'
sS'lib'
p8
(dp9
sS'unicodes'
p10
(tsS'width'
p11
I1009
sS'contours'
p12
(tsS'components'
p13
(tsS'anchors'
p14
(tsss."
HStem: 0 21G<478.355 544.406> 1152 20G<38 129.295 880.167 971>
LayerCount: 2
Fore
SplineSet
486 0 m 1
 38 1172 l 1
 122 1172 l 1
 517 89 l 1
 887 1172 l 1
 971 1172 l 1
 537 0 l 1
 486 0 l 1
EndSplineSet
Validated: 1
EndChar

StartChar: w
Encoding: 119 119 362
Width: 1626
VWidth: 0
Flags: W
PickledData: "(dp1
S'org.robofab.postScriptHintData'
p2
(dp3
sS'com.typemytype.robofont.layerData'
p4
(dp5
S'b'
(dp6
S'name'
p7
S'w'
sS'lib'
p8
(dp9
sS'unicodes'
p10
(tsS'width'
p11
I1626
sS'contours'
p12
(tsS'components'
p13
(tsS'anchors'
p14
(tsss."
HStem: 0 21G<370.3 495.601 1138.36 1262.58> 1152 20G<42 140.204 735.478 891.846 1475.32 1584>
VStem: 42 93<1121.7 1172> 1480 104<1120.62 1172>
LayerCount: 2
Fore
SplineSet
376 0 m 1
 42 1172 l 1
 135 1172 l 1
 429 42 l 1
 741 1172 l 1
 886 1172 l 1
 1216 43 l 1
 1480 1172 l 1
 1584 1172 l 1
 1257 0 l 1
 1144 0 l 1
 816 1164 l 1
 490 0 l 1
 376 0 l 1
EndSplineSet
Validated: 1
EndChar

StartChar: x
Encoding: 120 120 363
Width: 938
VWidth: 0
Flags: W
PickledData: "(dp1
S'org.robofab.postScriptHintData'
p2
(dp3
sS'com.typemytype.robofont.layerData'
p4
(dp5
S'b'
(dp6
S'name'
p7
S'x'
sS'lib'
p8
(dp9
sS'unicodes'
p10
(tsS'width'
p11
I938
sS'contours'
p12
(tsS'components'
p13
(tsS'anchors'
p14
(tsss."
HStem: 0 21G<31 133.383 802.256 904> 1152 20G<26 124.486 810.324 911>
LayerCount: 2
Fore
SplineSet
31 0 m 1
 418 584 l 1
 26 1172 l 1
 111 1172 l 1
 465 647 l 1
 824 1172 l 1
 911 1172 l 1
 523 584 l 1
 904 0 l 1
 815 0 l 1
 476 532 l 1
 120 0 l 1
 31 0 l 1
EndSplineSet
Validated: 1
EndChar

StartChar: y
Encoding: 121 121 364
Width: 1008
VWidth: 0
Flags: W
PickledData: "(dp1
S'org.robofab.postScriptHintData'
p2
(dp3
sS'com.typemytype.robofont.layerData'
p4
(dp5
S'b'
(dp6
S'name'
p7
S'y'
sS'lib'
p8
(dp9
sS'unicodes'
p10
(tsS'width'
p11
I1008
sS'contours'
p12
(tsS'components'
p13
(tsS'anchors'
p14
(tsss."
HStem: -423 83<170 299.547> 1152 20G<44 138.691 881.063 998>
LayerCount: 2
Fore
SplineSet
170 -423 m 1
 151 -340 l 1
 362 -331 409 -210 478 12 c 1
 44 1172 l 1
 131 1172 l 1
 529 137 l 1
 888 1172 l 1
 998 1172 l 1
 539 -40 l 1
 467 -222 438 -423 174 -423 c 0
 173 -423 171 -423 170 -423 c 1
EndSplineSet
Validated: 1
EndChar

StartChar: yen
Encoding: 165 165 367
Width: 944
VWidth: 0
Flags: W
PickledData: "(dp1
S'org.robofab.postScriptHintData'
p2
(dp3
s."
HStem: 0 21G<427 532> 382 88<136 427 532 813> 548 96<136 428 517 813> 1560 20G<-108 -0.935323 943.96 1048>
VStem: 427 105<0 382>
LayerCount: 2
Fore
SplineSet
427 0 m 1
 427 382 l 1
 136 382 l 1
 136 470 l 1
 428 470 l 1
 460 548 l 1
 136 548 l 1
 136 644 l 1
 428 644 l 1
 -108 1580 l 1
 -13 1580 l 1
 472 776 l 1
 956 1580 l 1
 1048 1580 l 1
 517 644 l 1
 813 644 l 1
 813 548 l 1
 498 548 l 1
 531 470 l 1
 813 470 l 1
 813 382 l 1
 532 382 l 1
 532 0 l 1
 427 0 l 1
EndSplineSet
Validated: 1
EndChar

StartChar: z
Encoding: 122 122 368
Width: 941
VWidth: 0
Flags: W
PickledData: "(dp1
S'org.robofab.postScriptHintData'
p2
(dp3
sS'com.typemytype.robofont.layerData'
p4
(dp5
S'b'
(dp6
S'name'
p7
S'z'
sS'lib'
p8
(dp9
sS'unicodes'
p10
(tsS'width'
p11
I941
sS'contours'
p12
(tsS'components'
p13
(tsS'anchors'
p14
(tsss."
HStem: 0 81<176 844> 1099 73<151 799>
LayerCount: 2
Fore
SplineSet
111 0 m 1
 111 130 l 1
 799 1099 l 1
 151 1099 l 1
 151 1172 l 1
 850 1172 l 1
 850 1042 l 1
 176 81 l 1
 844 81 l 1
 844 0 l 1
 111 0 l 1
EndSplineSet
Validated: 1
EndChar

StartChar: zero
Encoding: 48 48 372
Width: 1330
VWidth: 0
Flags: W
PickledData: "(dp1
S'org.robofab.postScriptHintData'
p2
(dp3
s."
HStem: -33 79<469.716 863.493> 1135 77<473.749 862.677>
VStem: 106 109<335.189 858.234> 1116 109<333.483 845.209>
LayerCount: 2
Fore
SplineSet
665 -33 m 0
 305 -33 106 258 106 590 c 0
 106 929 293 1212 664 1212 c 0
 1025 1212 1225 930 1225 594 c 0
 1225 254 1030 -33 665 -33 c 0
664 46 m 0
 1017 46 1116 324 1116 608 c 0
 1116 891 991 1135 664 1135 c 0
 324 1135 215 884 215 592 c 0
 215 316 326 46 664 46 c 0
EndSplineSet
Validated: 1
EndChar
